<?xml version="1.0" encoding="UTF-8"?>
<svg id="a" data-name="Capa 1" xmlns="http://www.w3.org/2000/svg" viewBox="0 0 1080 1080">
  <defs>
    <style>
      .c {
        fill: #efeade;
      }
    </style>
  </defs>
  <g id="b" data-name="CimU7Y">
    <g>
      <path class="c" d="M916.84,466.83c-18.27,23.06-35.05,29.04-57.53,17.2-7.07-3.72-14.41-13.92-14.97-21.64-1.54-21.13-.22-42.58,1.3-63.8,1.13-15.87,9.25-27.57,26.92-30.93-9.39-24.4-32.55-21.99-53.23-31.56v405.29c-1.36,.01-2.72,.02-4.08,.03-2.97-66.79-5.93-133.58-8.98-202.1-15.62,1.76-29.88,4.11-44.22,4.83-40.73,2.06-81.49,3.9-122.25,5.03-68.06,1.88-136.13,4.29-204.19,4.19-33.67-.05-67.32-5.35-101.01-8.02-19.83-1.57-39.69-2.64-64.27-4.24v218.13c5.11,0,13.95,.03,22.8,0,171.87-.67,343.74-1.4,515.61-1.97,26.18-.09,34.73,11.04,28.86,36.37-.17-25.4-5.03-28.66-30.8-28.1-124.89,2.73-249.8,4.7-374.69,7.12-54.79,1.06-109.58,2.46-164.37,3.99-4.14,.12-8.21,2.48-12.32,3.8-.02,1.84-.03,3.68-.05,5.52,6.33,1.54,12.64,4.33,18.99,4.41,42.05,.56,84.11,.79,126.17,.65,50.42-.18,100.89-2.49,151.25-.91,80.81,2.54,161.54,7.51,242.3,11.53,5.69,.28,11.34,1.22,16.95,5.95h-38.35c0,22.4-.02,42.25,0,62.1,.02,15.95-6.8,27.99-20.48,36.16h-62.2c-13.76-8.26-19.79-19.96-18.88-36.41,1.06-19.19,.25-38.48,.25-60.13H407.14c0,21.07,.01,41.56,0,62.05-.01,17.25-8.18,28.75-24.45,34.48h-58.54c-12.75-8.88-19.46-20.11-18.36-36.63,1.28-19.32,.3-38.78,.3-61.36-15.23,0-29.6,2.28-42.72-.79-8.95-2.09-20.23-10.3-22.89-18.29-2.26-6.8,6.19-17.26,10.15-25.99,2.41-5.31,7.61-10.42,7.58-15.6-.26-44.4-2.3-88.79-2.15-133.19,.29-83.46,1.85-166.92,2.33-250.39,.04-7.56,6.13-19.12-9.1-21.52-14.2-2.24-25.76,1.24-32.49,14.11-1.63,3.12,.34,11.26,3.22,13.12,29.9,19.31,25.73,69.36,11.44,94.47-4.1,7.2-14.51,14.7-22.41,15.15-29.42,1.67-34.89-3.08-45.88-30.41v-54.88c6.51-14.44,13.63-27.92,32.03-30.25,2.24-.28,4.06-6.59,5.45-10.34,9.7-26.29,32.38-33.72,59.51-25.01,0-27.58,1.46-54.22-.36-80.64-2.4-34.78,7.66-60.75,42.39-73.28h479.28c29.58,11.72,40.7,34.03,38.98,64.99-1.29,23.08-.43,46.27-.95,69.4-.23,10.26,2.84,14.97,14.29,16.04,25.22,2.35,45.41,13.03,53.34,39.57,.61,2.03,2.67,3.73,4.31,5.31,8.42,8.12,16.93,16.15,25.41,24.22v73.17Zm-368.12,67.47h255.88v-241.31c-86.12,4.11-170.12,8.11-255.88,12.2v229.1Zm-10.08-.88c-3.27-34.71-10.21-70.42-8.96-105.84,1.26-35.82-5.8-72.67,8.15-107.85,3.37-8.51,1-16.97-11.85-16.77-28.01,.44-56.03,.51-84.04,.46-19.92-.04-39.94,.6-59.74-1.08-34.31-2.92-68.48-7.41-102.33-11.2-2.68,81.49-5.3,161.14-7.97,242.29h266.75Zm-260.62-249.24H804.82c0-16.4,.07-31.59-.01-46.78-.2-37.21-12.43-48.82-49.72-47.95-62.09,1.45-124.18,3.61-186.27,3.8-84.72,.26-169.44-1.21-254.16-1.58-23.72-.1-36.48,12.1-36.62,33.56-.13,18.78-.03,37.56-.03,58.95Zm624.29,149.12c-.48,0-.96,0-1.44,0,0-9.68,3.07-20.92-.84-28.61-4.13-8.12-14.26-14.44-23.18-18.08-2.57-1.05-13.26,9.16-14.62,15.43-3.63,16.8-4.09,34.27-6.08,51.44-1.43,12.28,12.06,30.57,23.93,31.95,9.87,1.15,21.64-12.74,22.18-26.63,.33-8.49,.06-17,.06-25.49Zm-723.36-17.66c.76,13.12-.26,25.73,2.76,37.28,2.04,7.79,8.52,17.16,15.4,19.95,4.53,1.84,17.33-5.33,19.35-11,4.7-13.18,5.38-27.86,7.23-41.99,2.81-21.57-5.68-36.42-21.37-38.16-13.27-1.47-23.25,13.43-23.37,33.91Zm139.41,406.75c1.45,23.1,18.46,37.71,39.21,36.2,27.39-1.99,38.7-12.55,37.3-35.97-25.08,20.49-50.43,27.84-76.51-.24Zm443.72,.14c-38.29,23.53-44.11,25.53-77.53,2.27-.98,20.04,10.52,31.44,33.7,33.4,23.46,1.99,40.89-11.67,43.83-35.68Zm-441.9,37.34c3.98,12.26-6.55,25.51,11.35,26.96,12.6,1.02,25.44-.5,37.99,.85,16.92,1.83,21.59-5.02,17.68-23.02-22.38,13.21-44,17.44-67.02-4.79Zm434.7,8.47c-1.14-1.48-2.29-2.97-3.43-4.45-21.94,16.35-43.22,16.57-65.55,.45,1.62,8.71,4.41,21.35,8.7,21.88,18.28,2.27,37.01,.97,56.93,.97,1.18-6.62,2.27-12.74,3.36-18.85Zm-440.99-60.05c28.92,18.13,56.07,15.74,86.72,0h-86.72Zm446.42,4.26c-.11-1.52-.21-3.03-.32-4.55-20.73,1.57-41.46,3.13-63.85,4.83,23.46,20.79,43.45,1.85,64.17-.28Z"/>
      <path class="c" d="M622.35,728.61c7.08-8.75,14.46-17.85,21.2-26.17-51.35,3.32-101.28,6.55-151.21,9.77l-.55,3.71c38.24,3.84,76.48,7.68,114.72,11.53,.06,1.47,.12,2.95,.17,4.42-15.42,1.63-30.83,4.58-46.25,4.59-27.93,.03-55.87-1.56-83.79-2.7-37.04-1.52-58.49-28.35-49.74-61.53,5.12-19.45,19.01-28.32,37.42-28.99,48.61-1.77,97.26-2.81,145.89-3.11,25.11-.15,44.75,18.76,46.82,42.51,1.98,22.72-12.72,41.48-34.67,45.96Zm18.52-51.38c-42.1,1.85-81.09,3.08-120.02,5.48-21.12,1.3-41.59,1.4-61.95-6.11-9.19-3.39-19.85-3.03-16.4,14.81h201.63c-.71-4.68-.92-7.66-1.68-10.5-.61-2.27-1.89-4.35-1.58-3.67Zm-14.84-12.22c.02-2.03,.04-4.06,.06-6.09-54.15-9.39-108.2,3.59-162.31,1.57,0,1.51,0,3.02,0,4.52h162.25Z"/>
      <path class="c" d="M400.64,680.9c-26.1-26.58-50.72-33.22-64.2-18.51-10.4,11.35-12.66,39.27-1.35,44.94,11.71,5.88,27.43,10.29,39.36,7.28,10.62-2.68,18.46-16.38,27.26-24.97,.42,25.73-15.69,43.45-41.25,44.78-22.78,1.18-48.87-19.12-50.09-38.98-2.03-32.95,14.86-53.69,45.69-56.08,23.43-1.82,42.64,15.27,44.58,41.54Z"/>
      <path class="c" d="M769.81,688.15c1.39,24.64-17.03,44.78-42.34,46.29-22.95,1.36-48.51-18.73-49.6-39.02-1.85-34.25,15.49-54.92,47.06-56.06,25.76-.93,43.14,17.95,44.88,48.79Zm-40.37,27.32c16.48,1.08,36.75-15.25,37.05-29.86,.22-10.67-22.59-29.09-37.73-30.47-20.79-1.89-32.76,9.69-34.24,33.11-1.11,17.64,8.98,25.51,34.93,27.21Z"/>
      <path class="c" d="M374.37,436.77c24.79-15.89,45.71-29.3,68.75-44.07-4.23,30.77-34.54,50.8-68.75,44.07Z"/>
      <path class="c" d="M390.92,388.55c-2.05,6.38-2.3,15.54-6.65,18.35-4.41,2.85-12.88-.58-19.57-1.27-.17-1.79-.34-3.58-.52-5.36,6.96-4.57,13.93-9.15,20.89-13.72,1.95,.67,3.9,1.33,5.85,2Z"/>
      <path class="c" d="M687.83,254.96c4.18-23.85-.97-30.28-21.77-29.35-70.44,3.13-140.87,6.72-211.31,9.83-12.14,.54-24.35-.66-36.52-.51-5.18,.06-10.34,1.54-15.5,2.37,.17,2.2,.34,4.4,.51,6.61,44.23,0,88.54-1.74,132.66,.49,44.49,2.24,88.78,8.42,133.38,16.89-21.48,1.3-42.96,3.82-64.43,3.66-63.87-.45-127.73-2.18-191.6-2.9-17.47-.2-28.16-6.8-28.99-20.34-.86-13.89,9.06-23.61,26.06-23.86,85.23-1.24,170.46-2.5,255.69-2.97,26.44-.15,36.07,16.04,21.83,40.08Z"/>
      <path class="c" d="M362.44,241.34c1.9,14.23-9.43,18.58-17.76,16.52-7.66-1.89-16.95-10.96-19.02-18.63-3.57-13.2,7.05-19.83,19.23-20.07,14.52-.28,16.94,10.86,17.55,22.17Z"/>
      <path class="c" d="M722.13,247.21c-2.23-20.89,5.75-27.36,18.14-28.01,14.31-.75,17.41,9.42,18.58,21.44,1.31,13.47-7.81,18.48-17.31,17.34-8.16-.98-15.55-8.46-19.4-10.76Z"/>
    </g>
  </g>
</svg>