<?xml version="1.0" encoding="UTF-8"?>
<svg id="a" data-name="Capa 1" xmlns="http://www.w3.org/2000/svg" viewBox="0 0 1080 1080">
  <defs>
    <style>
      .c {
        fill: #efeade;
        stroke: #efeade;
        stroke-miterlimit: 10;
        stroke-width: 1.98px;
      }
    </style>
  </defs>
  <g id="b" data-name="it1cKY">
    <g>
      <path class="c" d="M240.86,824.4c-3.33,4.98-6.82,9.85-9.93,14.96-3.11,5.11-9.27,7.06-14.63,3.12-4.62-3.4-8.58-7.88-12.15-12.43-.96-1.22-.21-5.13,1.11-6.57,29.93-32.77,59.99-65.43,90.14-98,47.97-51.82,96.01-103.6,144.13-155.28,2.6-2.8,3.34-5.26,3.05-9.04-.8-10.44-1.24-20.94-1.25-31.41-.01-42.59,.2-85.18,.3-127.77,0-1.12-.23-2.23-.53-5.04-6.37,9.81-12.15,18.16-17.31,26.88-2.47,4.16-5,5.44-9.24,3.14-3.72-2.02-7.38-4.19-11.22-5.94-1.96-.89-4.29-1-7.34-1.66-1.02-1.82-2.6-4.61-4.56-8.09,2.34-2.63,4.99-5.59,7.61-8.57,16.61-18.95,28.62-40.95,41.46-62.41,28.5-47.6,56.76-95.33,80.33-145.66,6.76-14.43,12.26-29.67,20.78-42.97,7.23-11.3,6.64-22.74,6.7-34.64,.13-23.99,.04-47.99,.04-72.43-3.46-.68-7.26-1.07-10.8-2.25-2-.67-3.58-2.61-5.35-3.98,1.71-1.2,3.27-2.9,5.18-3.5,3.43-1.08,7.07-1.51,11.34-2.35,.32-6.05,.28-12.47,1.18-18.76,.42-2.97,2.65-5.67,4.06-8.5,1.37,2.86,3.51,5.6,3.94,8.59,.83,5.74,.69,11.62,1,18.33,2.49,0,4.8,.02,7.11,0,2.42-.02,4.85-.23,7.26-.09,4.49,.26,9.24,1.53,9.09,6.73-.14,4.72-4.68,6.1-9.01,6.2-4.59,.11-9.18,.02-14.31,.02,0,13.29-.06,26.15,.02,39.02,.09,15.14,2.01,30.5,.04,45.35-2.72,20.51,4.23,38.25,11.14,56.39,14.26,37.43,33.28,72.51,52,107.82,11.96,22.56,21.13,46.59,32.04,69.73,6.77,14.37,14.27,28.41,21.86,42.36,2.23,4.09,2.57,7.14-1.19,9.94-4.67,3.48-9.37,6.95-14.3,10.03-3.52,2.21-6.66,1.71-9.23-2.24-6.34-9.75-12.99-19.3-19.98-29.61,0,2.18,0,3.84,0,5.5,.28,43.8,.66,87.6,.75,131.4,.01,6.48-1.31,12.97-2.23,21.5,11.88,14.03,25.36,29.79,38.66,45.7,30.57,36.57,66.13,67.8,102.96,97.82,32.25,26.28,62.28,55.06,90.43,85.74,2.43,2.65,4.75,5.57,6.42,8.73,4.35,8.24,3.08,13.5-3.97,19.67-5.76,5.05-11.41,10.22-17.12,15.33-6.38,5.71-10.48,5.32-15.4-1.45-3.08-4.24-6.19-8.45-10.3-14.07,1.93,69.91,3.81,138.25,5.72,207.42,7.12,.57,15.07,1.2,23.02,1.86q17.97,1.49,18.84,19.57c.08,1.61,.59,3.32,.22,4.81-.58,2.33-1.75,4.51-2.67,6.75-2.11-1.01-4.23-2.02-6.34-3.04-1.17-.56-2.32-1.58-3.51-1.63-32.25-1.27-64.51-2.44-96.77-3.6-.35-.01-.71,.3-1.71,.76,.38,3.26,.78,6.73,1.19,10.26,19.25,0,37.99,.08,56.73-.02,17.36-.09,34.71-.4,52.07-.53,3.58-.03,7.93-.56,7.82,4.97-.1,5.39-4.41,4.88-8,4.92-101.93,1.13-203.86,1.83-305.78,3.49-81.33,1.32-162.64,3.8-243.96,5.91-2.45,.06-4.81,1.84-7.29,2.58-1.37,.41-2.96,.7-4.33,.43-2.91-.58-5.75-2.3-8.6-2.27-23.61,.31-47.22,.99-70.83,1.4-10.05,.17-10.9-3.21-10.7-9.86,.17-5.83-.42-11.75,.45-17.47,1.01-6.66,5.37-8.62,11.66-6.35,.55,.2,1.16,.47,1.71,.41,3.36-.37,6.72-.83,11.52-1.44v-214.05c-.42-.2-.84-.39-1.26-.59Zm307.25-305.32c-17.34,16.02-34.04,30.94-50.18,46.46-45.38,43.64-90.97,87.1-135.64,131.47-34.93,34.69-68.49,70.75-102.95,105.92-7.7,7.86-10.18,15.98-9.87,27.24,1.89,68.6,2.71,137.22,3.92,205.83,.01,.72,.45,1.44,.27,.89,73.79-1.42,146.92-2.84,220.17-4.25,.05-1.08,.14-1.87,.12-2.67-.91-30.87-2.33-61.73-2.55-92.6-.13-18.31,.28-36.82,2.86-54.89,3.91-27.41,15.69-51.25,38.98-67.89,18.28-13.06,39.32-14.8,60.78-13.49,5.27,.32,11.14,1.65,15.47,4.45,22.16,14.34,37.57,32.87,38.35,61.19,1.01,36.7,2.75,73.39,4.96,110.03,.99,16.43,3.9,32.75,6.02,49.8,17.33-1.44,33.91-2.81,50.54-4.19,0-1.7,.07-2.89-.01-4.08-1.08-16.49-3.11-32.99-3.11-49.48,.01-58.13,.64-116.27,1.3-174.4,.05-4.66-1.53-7.18-4.96-9.94-32.89-26.4-65.76-52.81-98.33-79.61-13.83-11.38-26.91-23.66-40.29-35.5-.49,.27-.89,.4-1.16,.67-45.54,45.49-91.09,90.98-136.53,136.58-1.33,1.34-2.1,3.88-2.04,5.84,.13,4.33,1.41,8.64,1.38,12.96-.05,7.35-1.18,14.71-1.12,22.06,.5,59.33,1.15,118.66,1.83,177.98,.04,3.61-.42,6.65-4.57,7.18-4.51,.57-6.1-2.48-6.44-6.26-.89-9.64-1.77-19.29-2.37-28.96-2.57-41.04,1.13-81.88,4.11-122.74,1.11-15.24,1.72-30.52,2.61-46.71-4.45,.79-7.93,1.82-11.43,1.91-3.52,.09-8.14,.49-10.39-1.45-7.59-6.53-7.43-8.97-.3-16.67,13.84-14.95,27.74-29.84,41.8-44.59,32.58-34.15,65.15-68.31,98.01-102.2,5.85-6.03,12.78-11.18,19.81-15.84,2.9-1.92,8.28-3.17,10.95-1.75,6.66,3.53,12.52,8.63,18.5,13.36,9.15,7.25,17.98,14.91,27.21,22.05,9.57,7.4,19.66,14.13,29.18,21.6,17.62,13.81,34.49,28.62,52.61,41.72,13.22,9.56,25.47,19.51,34.95,32.99,3.27,4.65,8.83,8.08,13.97,10.92,3.64,2.02,7.62,3.94,6.71,8.04-.97,4.36-3.58,8.75-6.58,12.14-3.05,3.44-6.58,.77-9.61-1.46-7.06-5.2-14.19-10.31-21.83-15.85-.13,1.94-.27,2.92-.24,3.9,1.7,67.19,3.35,134.39,5.21,201.58,.21,7.57,1.64,15.1,2.45,22.25,38.24-1.62,75.62-3.2,113.47-4.8,0-2.63,.01-5.42,0-8.21-.12-22.81-.68-45.63-.29-68.43,.73-43.59,2.06-87.17,2.9-130.76,.06-2.89-1.11-6.52-3.02-8.61-19.69-21.61-38.94-43.69-59.72-64.21-21.95-21.67-46.76-40.55-67.97-62.87-37.24-39.19-72.73-80.05-108.86-120.29-9.68-10.78-19.03-21.85-29.02-33.35Zm-95.02,36.63c2.12-2.3,3.47-3.75,4.8-5.22,25.08-27.65,50.14-55.32,75.27-82.92,5.39-5.92,7.12-6.22,12.92-.78,18.96,17.78,37.82,35.67,56.38,53.87,7.26,7.11,13.6,15.15,20.37,22.77,0-8.68-.06-16.92,.01-25.17,.34-40.36,.31-80.74,1.33-121.08,.3-11.78-.23-22.74-6.55-32.92-.74-1.19-1.21-2.55-1.73-3.86-21.33-53.16-42.65-106.32-63.97-159.47-.77-1.91-1.64-3.79-2.9-6.71-4.82,10.42-8.94,19.6-13.28,28.66-24.75,51.7-51.53,102.31-80.91,151.54-1.58,2.65-3.28,5.82-3.25,8.73,.24,18.15,1.32,36.3,1.43,54.45,.25,38.91,.08,77.83,.08,118.1Zm-243.38,267.94c2.6,2.38,4.83,4.41,7.05,6.44,.3,.27,.6,.54,.9,.81,5.23,4.55,6.23,4.29,10.57-.89,13.33-15.94,25.87-32.68,40.39-47.46,73.97-75.28,148.36-150.15,222.87-224.91,15.37-15.42,31.86-29.74,47.85-44.55,2.74-2.54,5.72-5.23,9.47-2.02,5.8,4.97,11.74,9.88,16.93,15.46,21.56,23.22,43.33,46.27,64.15,70.14,35.86,41.11,72.75,81.06,114.86,116.03,36.5,30.31,68.11,65.33,95.67,103.99,.54,.75,1.37,1.29,2.02,1.9,3.96-3.66,7.58-7.17,11.38-10.48,9.45-8.21,9.97-10.95,.83-19.67-28.74-27.44-56.87-55.63-86.94-81.54-36.26-31.24-73.11-61.67-103.87-98.66-25.04-30.1-50.08-60.2-75.7-89.79-13.82-15.96-28.88-30.85-43.78-46.65-111.95,117.71-223.16,234.64-334.64,351.86Zm342.38-10.96c-11.37,.74-21.3,3.59-30.28,9.45-15.13,9.87-24.82,23.99-31.18,40.55-8.11,21.1-9.3,43.23-9.34,65.5-.05,34.28-.12,68.57-.16,102.85,0,.54,.36,1.08,.22,.7h75.09c-7.06-73.61-9.77-145.88-4.35-219.05Zm75.11,215.02c-.22-2.39-.27-3.79-.49-5.17-8.43-51.52-11.67-103.39-10.84-155.56,.06-4.01-.34-8.07-.95-12.03-2.01-12.99-11.26-21.51-19.32-30.76-10.96-12.57-25.05-13.88-40.59-11.63-.06,73.07,2.6,145.7,10.34,218.56,20.6-1.14,40.88-2.25,61.85-3.41ZM418.19,416.47c3.17-5.57,5.86-10.52,8.75-15.35,36.32-60.81,70.9-122.57,101.28-186.6,5.53-11.66,11.1-23.31,17.04-34.77,.9-1.74,3.95-2.36,6-3.5,.8,2.15,1.82,4.24,2.34,6.45,.47,2-.13,4.36,.66,6.16,14.27,32.49,28.89,64.82,43,97.38,14.83,34.22,28.95,68.75,43.9,102.91,4.07,9.29,10.04,17.76,15.36,26.98,3.7-2.52,6.46-4.41,9.57-6.53-14.05-20.81-21.68-44.06-30.91-66.6-4.96-12.11-10.07-24.26-16.33-35.73-26.45-48.48-48.75-98.7-65.24-151.44-.55-1.76-1.78-3.31-3.21-5.88-1.17,2.25-1.85,3.4-2.39,4.61-23.67,53.1-50.53,104.62-79.03,155.23-19.68,34.94-40.28,69.43-66.89,100.08,4.96,2.04,10.29,4.23,16.1,6.61Zm-40.32,406.37l2.44,.66c6.96-8.37,13.68-16.95,20.92-25.06,42.25-47.3,87.75-91.41,133.42-135.35,3.78-3.64,7.65-3.27,11.59-1.13,2.8,1.52,5.27,3.7,7.79,5.71,50.61,40.41,101.18,80.86,151.82,121.23,5.6,4.47,11.59,8.45,17.4,12.66,.62-.38,1.24-.75,1.86-1.13-.62-1.47-.95-3.97-1.91-4.25-9.89-2.86-15.05-10.87-21.22-18.11-6.35-7.46-13.2-14.69-20.76-20.89-17.3-14.19-35.74-27.02-52.67-41.62-24.27-20.93-53.3-35.94-74.67-60.43-1.16-1.33-3.42-1.7-5.19-2.47-5.83-2.55-9.74,1.28-13.29,4.61-22.65,21.25-45.32,42.48-67.59,64.12-31,30.1-60.57,61.55-87.58,95.33-1.3,1.63-1.59,4.07-2.35,6.13Zm286.07,220.74c-.06-.4-.13-.79-.19-1.19,28.88-.85,57.76-1.69,86.5-2.54v-13.18c-40.27,2.96-79.97,5.88-120.08,8.82,1.59,5.47,3.23,9.82,4.06,14.32,.83,4.49,2.97,5.54,7.4,5.44,34.48-.75,68.98-1.2,103.47-1.76,1.92-.03,3.84-.28,5.63-.42v-11.47c-29.24,.66-58.01,1.32-86.78,1.97Zm-335.79,10.7c-.04-.57-.08-1.13-.11-1.7,31.97-2.3,63.93-4.6,95.84-6.89,.28-5.07-3.11-4.62-6.1-4.61-25.22,.04-50.45,.11-75.67,.16-11.25,.02-22.51,0-34.49,0,1.23,8.8,2.25,16.06,3.3,23.61,38.62-1.31,76.64-2.61,115.25-3.92-.46-4.2-.85-7.69-1.34-12.1-32.62,1.84-64.65,3.65-96.68,5.46Zm298.7-6.68h-71.98c0-.18,0-.36-.01-.54,23.68-.61,47.37-1.22,71.69-1.85-.57-3.53-1-6.18-1.38-8.5-34.79,1.65-68.93,3.28-102.8,4.89-2.57,6.85,3.45,5.95,8.18,7.87-3.31,.32-5.02,.49-6.85,.67,.2,5.58,1.91,8.1,7.97,7.84,20.35-.9,40.72-1.26,61.09-1.63,11.64-.21,23.28-.04,35.64-.04-.71-4-1.13-6.34-1.55-8.71Zm-403,21.25c27.35-1.31,53.86-2.59,81.06-3.9-.59-7.79-1.14-15.05-1.71-22.59-2.74,0-4.74-.09-6.72,.01-21.34,1.11-42.68,2.26-64.02,3.39-9.13,.48-10.29,2.27-7.54,11.39h77.6c-25.79,4.12-51.85,2.91-78.26,3.6-.14,2.68-.26,5.04-.41,8.09Zm636.09-30.61c-.26-4.59,2.18-9.4-5.19-9.54-30.25-.55-60.5-1.36-90.75-2.03-2.14-.05-4.29,.28-7.02,.48,.43,4.53,.8,8.44,1.24,12.98,34.08-.63,67.52-1.26,101.72-1.89Zm-342.97,10.98h-86c.76,4.16,1.4,7.62,2.1,11.47,28.59-.87,56.67-1.72,85.05-2.58-.41-3.16-.71-5.51-1.15-8.89Zm-87.65-7.67c-.27,.58-.53,1.16-.8,1.75,1.64,.93,3.26,2.63,4.92,2.67,27.15,.58,54.31,.95,81.47,1.34,.53,0,1.06-.39,1.91-.73-.13-1.71-.27-3.4-.39-5.02h-87.12Zm-30.44-227.85c-4.03,3.82-7.37,6.98-11.39,10.79q12.42-1.28,11.39-10.79Z"/>
      <path class="c" d="M353.73,963.55c7.2,0,13.62-.2,20.01,.12,1.96,.1,3.84,1.64,5.76,2.52-1.09,1.66-2.18,3.32-3.58,5.45,2.89,9.63,.34,12.62-10.32,12.81-23.98,.44-47.96,1.33-71.94,2.09-1.17,.04-2.32,.62-3.5,.85-5.35,1.03-10.38-2.38-11.19-7.55-.89-5.59,1.84-9.71,7.54-10.23,4.49-.41,4.81-2.62,4.74-6.4-.38-18.14-1.28-36.33-.39-54.42,.94-19.17,11.51-32.61,28.89-40.75,8.43-3.95,13.61-3.07,19.78,4.13,7.96,9.29,11.26,20.49,11.98,32.36,1.06,17.52,1.53,35.08,2.22,52.62,.07,1.8,0,3.61,0,6.39Zm-32.37-.5c-.99-.08-1.98-.16-2.97-.23-1.92-27.85-.11-55.81-.41-84.22-10.08,5.53-16.76,13.58-17.98,23.82-2.53,21.3-3.44,42.8-5.02,64.17,17.27-1.27,33.06-2.44,50.16-3.7-1.16-22.57-1.76-45.1-3.82-67.5-.58-6.35-5.08-12.53-8.54-18.32-1.04-1.73-4.74-2.75-7.12-2.6-3.76,.25-3.29,3.59-3.27,6.53,.17,25.2,.24,50.4,.23,75.6,0,2.15-.83,4.29-1.27,6.44Zm49.69,7.77c-2.33,0-4.34-.2-6.29,.04-6.87,.82-13.71,2.44-20.58,2.58-16.94,.36-33.89,.06-50.83,.08-2.75,0-5.49,.34-8.26,.53,.64,5.7,4.35,8.04,10.3,7.24,5.79-.78,11.58-1.79,17.4-2.19,19.08-1.31,38.17-2.39,57.69-3.58,.11-.88,.32-2.58,.58-4.7Z"/>
      <path class="c" d="M786.41,945.99c5.01,0,9.41,0,13.8,0,3.85,0,6.27,1.21,5.48,5.76-.27,1.55,.13,3.2,.18,4.81,.28,10.57-3.71,14.84-14.28,14.84-11.7,0-23.4-.45-35.1-.42-13.1,.03-26.2,.48-39.3,.57-7.11,.05-11.27-3.85-11.61-10.37-.34-6.36,3.13-10.18,10.15-11.11,10.97-1.46,21.95-2.89,33.74-4.45v-89.69c-11.33,.29-21.69,9.28-22.4,20.69-1.37,21.91-2.26,43.86-3.35,65.79-.08,1.56-.23,3.11-1.74,5.13-.67-1.5-1.81-2.95-1.95-4.49-2.3-24.62-1.38-49.17,2.19-73.62,.33-2.29,1.41-4.71,2.81-6.56,7.62-10.07,28.07-15.57,39.83-10.96,7.36,2.88,11.97,8.54,13.87,15.78,2.34,8.92,4.27,18.08,5.05,27.24,1.13,13.25,1.03,26.6,1.57,39.91,.15,3.76,.71,7.51,1.08,11.17Zm-9.84,.13c0-19.31,.3-37.86-.15-56.38-.18-7.19-1.49-14.49-3.34-21.46-2.5-9.42-9.92-14-18.36-12.87v90.7h21.84Zm-63.07,9.47c-2.29,6.39-.4,11.15,5.22,11.01,24.38-.62,48.77-1.21,73.16-1.78,7.85-.18,9.73-3.01,7.02-10.73-13.89,.5-27.77,1.21-41.66,1.45-14.26,.25-28.53,.06-43.74,.06Z"/>
      <path class="c" d="M743.16,905.58c-2.52,1.53-4.06,3.2-5.19,2.96-1.27-.27-2.67-2.15-3.01-3.57-.16-.68,2.06-2.72,3.14-2.67,1.35,.05,2.65,1.62,5.06,3.28Z"/>
      <path class="c" d="M513.02,400c-.71-11.36-1.38-22.18-2.07-32.99-1.17-18.08-.71-35.97,7.78-52.55,10.59-20.69,36.78-21.96,48.79-2.14,3.45,5.7,5.96,12.49,6.9,19.06,1.35,9.51,1.03,19.28,1.14,28.94,.15,13.08,.04,26.15,.04,39.64,1.22,.17,2.59,.2,3.88,.56,3.24,.91,8.55,1.19,9.25,3.1,1.84,5,3.34,11.24,1.92,16.09-2.56,8.73-3.46,7.74-13.3,7.22-16.88-.9-33.82-.84-50.73-1.09-9.27-.14-18.55-.17-27.82-.12-4.95,.03-6.89-2.62-6.8-7.17,.06-3.22,.17-6.46,.54-9.66,.8-7,4.42-9.43,11.52-8.49,2.67,.35,5.46-.21,8.97-.4Zm28.42-.02c.87-15.72,2.39-31.17,2.41-46.63,.02-15.62-1.44-31.23-2.25-46.97-5.86,.23-11.37,3.02-13.85,8.51-3.76,8.32-7.83,17.1-8.71,25.99-1.48,14.96-.57,30.17-.65,45.27-.02,4.53,0,9.06,0,13.83h23.06Zm25.49,.07c0-23.41,.65-46.35-.42-69.2-.3-6.38-4.94-13.02-8.92-18.6-2.28-3.2-7.21-4.5-10.5-6.4,.69,32.07,1.35,62.97,2.01,94.19h17.82Zm-66.51,18.52c28.19-.82,55.49-1.62,82.92-2.42,1.64-8.4,1.39-8.69-7.3-8.88-23.49-.49-46.99-1.11-70.49-1.33-1.7-.02-4.29,2.42-4.92,4.25-.85,2.48-.21,5.47-.21,8.38Z"/>
      <path class="c" d="M530.17,901.94c2.59,3.01,5.63,5.23,5.27,6.4-.73,2.35-3.32,4.13-5.14,6.15-1.7-1.63-4.74-3.23-4.76-4.89-.03-2.08,2.39-4.21,4.63-7.66Z"/>
      <path class="c" d="M577.21,905.18c-3.35,2.34-5.49,4.95-7.04,4.65-2.04-.41-3.63-3.11-5.41-4.83,1.75-1.55,3.4-4.16,5.28-4.33,1.77-.16,3.78,2.24,7.17,4.51Z"/>
      <path class="c" d="M330.7,920.6c1.44,2.59,2.83,3.99,2.76,5.32-.06,1.09-1.85,2.08-2.88,3.12-1.13-1.13-3.04-2.17-3.17-3.4-.13-1.19,1.58-2.57,3.29-5.04Z"/>
      <path class="c" d="M769.93,905.77c-1.54,.72-3.49,2.42-4.52,1.97-2.41-1.04-4.38-3.1-6.53-4.75,1.3-.95,2.83-2.9,3.87-2.67,2.57,.57,4.91,2.14,7.35,3.31-.05,.71-.11,1.42-.16,2.13Z"/>
      <path class="c" d="M541.04,355.05c-3.19,2.39-5.16,5-6.88,4.85-1.84-.16-4.74-2.87-4.8-4.56-.07-1.66,2.69-4.58,4.5-4.83,1.72-.24,3.82,2.27,7.19,4.54Z"/>
      <path class="c" d="M555.87,345.84c2.26,3.27,4.72,5.34,4.38,6.71-.47,1.92-3.05,3.32-4.72,4.94-1.42-1.63-3.83-3.18-3.98-4.92-.14-1.63,2.1-3.48,4.32-6.73Z"/>
    </g>
  </g>
</svg>