<?xml version="1.0" encoding="UTF-8"?>
<svg id="a" data-name="Capa 1" xmlns="http://www.w3.org/2000/svg" viewBox="0 0 1080 1080">
  <defs>
    <style>
      .c {
        fill: #efeade;
        stroke: #efeade;
        stroke-miterlimit: 10;
        stroke-width: 1.99px;
      }
    </style>
  </defs>
  <g id="b" data-name="UKHQVQ">
    <g>
      <path class="c" d="M681.47,365.3c7.26-4.06,16.06-.57,19.26,8.33,1.5,4.18,2.18,8.95,2,13.4-1.38,35.11-3.06,70.21-4.64,105.32-.25,5.59-.51,11.19-.75,16.35,7.41,1.15,14.4,2.38,21.44,3.27,4.56,.58,7.42,3.24,8.48,7.22,1.19,4.5,2.02,9.29,1.88,13.91-.61,20.56-1.64,41.12-2.49,61.67-.08,1.97-.01,3.94-.01,5.82,5.77,2.9,11.38,5.98,17.2,8.59,8.65,3.87,12.54,10.42,12.76,19.78,.55,23.77,1.36,47.53,2.03,71.3,.11,4.1,.02,8.21,.02,12.83,7.14,.5,14.07,.95,21,1.48,26.7,2.02,52.96,6.15,77.9,16.49,2.65,1.1,5.59,2.19,7.51,4.15,1.97,2.02,4.09,5.14,4.01,7.72-.51,17.62-1.75,35.22-2.41,52.84-.27,7.11-3.7,11.87-9.74,14.61-15.37,6.97-30.58,14.48-46.43,20.18-42.17,15.14-86.14,22.01-130.58,25.57-31.44,2.52-62.99,3.7-94.49,5.49-1.05,.06-2.1,.2-3.43,.33-.24,2.19-1,4.39-.6,6.35,1.05,5.1-1.62,7.33-5.82,8.71-2.72,.9-5.46,1.75-8.58,2.75,.21,4.52,.14,9.09,.7,13.59,.85,6.92,4.55,12.32,10.45,15.87,5.21,3.13,10.7,5.79,16.17,8.47,8.61,4.21,16.51,9.14,21.41,17.84,.65,1.15,2.57,1.91,4.03,2.21,5.5,1.12,10.8,2.7,14.14,7.52,1.58,2.28,2.98,5.19,3.11,7.88,1.36,28.93,2.47,57.86,3.62,86.8,.33,8.29-5.97,16.4-13.85,18.4-1.7,.43-3.03,2.17-4.62,3.16-11.25,6.98-23.96,9.55-36.72,11.47-49.09,7.37-96.9,2.28-143.28-15.63-8.14-3.15-8.08-3.15-8.32-11.82-.76-27.77,.07-55.47,3.76-83.05,.48-3.61,.4-7.37,1.38-10.84,2.35-8.29,8.14-13.25,16.34-15.71,2.18-.66,4.49-1.81,6.05-3.41,5.77-5.92,13.17-8.64,20.69-11.19,17.3-5.85,25.6-21.67,26.44-39.4-10.88-1.85-12.76-2.26-12.67-20.02-3.54,0-7.13,.09-10.71-.01-55.26-1.6-110.08-7.12-164.07-19.39-29.44-6.69-58.28-15.41-86.26-26.82-4.36-1.78-8.82-3.64-12.65-6.31-5.96-4.15-11.79-8.23-11.13-17.43,1.08-15.01,.74-30.12,1.41-45.17,.23-5.29,3.47-9.51,8.01-12.12,10.42-5.99,21.67-9.67,33.68-10.76,2.06-.19,4.17,.23,6.55,.39-.15-.9-.45-2-.5-3.11-.18-3.57,2.62-6.78,5.51-5.36,5.1,2.52,9.4-.32,14.02-.64,8.48-.58,16.95-1.45,25.43-2.17,6.11-.52,12.22-.99,19.03-1.54-.47-9.35-1.07-18.67-1.39-28.01-.57-16.45-1.15-32.9-1.36-49.35-.07-5.66,1.29-11.19,5.31-15.67,.53-.6,.73-1.6,.85-2.44,.42-3.1,.73-6.21,1.15-9.93-8.17-2.37-15.98-7.41-22.53-14.48-2.04-2.2-3.02-4.52-.74-6.79,2.16-2.16,4.46-1.01,6.44,.81,.44,.41,.98,.71,1.97,1.41,1.37-3.18,2.86-6.1,3.88-9.17,.93-2.78,2.51-5.17,5.37-4.27,1.77,.56,3.9,3.18,4.06,5.03,.38,4.35-.14,8.82-.65,13.2-.41,3.51,1.17,5.31,4.33,5.56,5.69,.45,11.4,.56,17.51,.83,0-2.57-.02-4.04,0-5.51,.39-22.39,.41-44.8,1.37-67.16,.45-10.58,1.83-11.34,12.16-13.74,4.72-1.1,9.59-1.51,14.82-2.31,0-8.73,.02-17.5,0-26.27-.11-38.12-.27-76.23-.32-114.35,0-7.24,2.58-9.15,10.02-8.93,8.2,.24,16.41,.06,24.25,.06v-32.02c-9.88,1.77-18.96,3.32-27.98,5.16-.92,.19-1.88,2.07-2.13,3.3-.72,3.57-.62,7.37-1.78,10.76-.73,2.14-2.87,4.38-4.93,5.24-1.07,.45-3.43-1.91-5.07-3.17-3.01-2.32-5.92-4.77-9.54-7.71-6.72,3.35-12.75,9.1-18.15,16.69,3.82,3.61,7.86,6.88,11.18,10.76,2.16,2.53,4.13,5.81,4.65,9.01,.95,5.82-4,9.4-9.67,7.56-5.64-1.83-9.74-5.38-11.77-11.24-1.41,9.03,1.02,17.45,3.45,25.82,.28,.97,2.02,1.74,3.23,2.16,2.3,.78,4.72,1.19,7.07,1.84,7.26,2.01,11.7,6.86,13.77,13.96,1.48,5.06-.08,8.75-4.56,11.14-5.39,2.87-8.41,2.47-12.14-1.7-1.3-1.45-2.48-3.01-4.13-5.03-2.74,16.06-.18,30.13,10.24,42.32,.89,1.04,2.02,1.97,2.6,3.16,.57,1.15,.58,2.57,.84,3.88-1.35-.31-3.04-.21-3.99-1-6.51-5.43-10.55-12.51-13.03-20.53-.57-1.85-.99-3.74-2.4-5.65-.26,2.6-.28,5.26-.83,7.8-1.22,5.62-2.16,11.4-4.24,16.71-2.21,5.65-6.33,6.08-10.74,1.96-11.22-10.46-8.35-29.73,5.47-36.77,.81-.41,1.63-.83,2.45-1.24,9.35-4.62,9.84-4.69,8.28-15.24-1.17-7.93-3.52-15.72-5.81-23.44-4.45-14.97-4.89-29.45,4.14-43.03,1.9-2.85,4.25-5.4,6.73-8.51-3.28,0-6.1,0-8.92,0-7.05-.03-10.27-4.72-7.63-11.27,.91-2.25,2.06-4.42,3.25-6.54,2.34-4.14,5.29-5.19,9.57-2.92,5.38,2.85,10.5,6.17,15.83,9.12,1.15,.64,3,1.18,4.02,.69,16.39-7.75,33.75-9.87,51.84-9.24,1.23-11.17-1.45-22.77,2.05-33.71,.77-.07,1.55-.15,2.32-.22,.74,2.26,2,4.5,2.13,6.8,.92,16.58,1.66,33.18,2.33,49.77,.2,4.99,.03,9.99,.03,15.51,2.67,.14,5.34,.37,8.01,.4,25.91,.26,51.83,.46,77.74,.78,2.54,.03,6.15-.85,6.6,2.85,.09,.78-4.16,2.91-6.48,3.01-15.83,.74-31.68,1.44-47.52,1.5-22.86,.09-45.73-.37-68.6-.6-1.18-.01-2.36,0-3.77,0,.53,49.67,1.05,98.99,1.58,148.99,101.77,10.86,204.1,4.2,307.87-1.92-5.23-2.37-5.75-5.73-5.56-9.6,1.46-30.45,2.75-60.92,4.3-91.36,.42-8.2,2.25-16.38,2.12-24.55-.08-5.17-2.26-10.43-4.23-15.36-.67-1.68-3.43-2.94-5.49-3.57-3.47-1.07-4.94-2.76-3.56-6.32l-.13,.14Zm-47.88,242.08c-2.48,2.56-4.66,5.58-7.56,7.54-1.99,1.34-5.18,2.07-7.47,1.53-3.27-.77-2.48-3.93-1.82-6.5,.05-.18-.27-.45-.6-.95-1.63,.52-3.57,.74-4.97,1.72-.95,.67-1.97,3.02-1.56,3.55,2.22,2.88,4.56,7.17,7.45,7.7,4.75,.87,10.61,1.13,14.44-3.3,3.31-3.83,6.04-8.16,9.19-12.51-1.72,.2-3.74,.45-5.77,.69,3.64-2.05,7.46-1.7,10.31,.85,1.11,.99,.18,4.25,.18,6.78,13.48-.78,27.33-1.26,41.12-2.51,8.6-.78,17.11-2.6,25.61-4.24,2.7-.52,4.93-2.03,5.07-5.53,.98-24.66,2.21-49.31,3.04-73.98,.24-7.09-1.25-7.9-7.9-6.22-.74,.19-1.48,.4-2.24,.47-18.49,1.74-36.95,4.14-55.48,5.03-36.47,1.76-72.99,2.66-109.48,3.97-10.12,.36-20.24,1.3-30.36,1.35-46.36,.24-92.65-1.23-138.73-6.8-5.85-.71-11.7-1.37-17.36-2.03-.37,.75-.62,1.02-.63,1.28-.05,22.85-.11,45.71,.01,68.56,0,1.14,1.5,2.81,2.7,3.31,6.29,2.66,12.66,5.18,19.1,7.45,4.45,1.57,9.08,2.65,14.27,4.14-.5-1.38-.51-1.8-.71-1.91-1.86-1.04-3.75-2.02-5.62-3.03-5.03-2.73-6.48-5.69-5.47-11.22,.33-1.8,.73-3.58,1.1-5.37,1.52-7.41,3.93-8.88,11.23-6.34,4.3,1.5,8.38,3.62,12.65,5.22,6.41,2.39,8.05,7.1,4.3,12.95-.99,1.54-2.34,2.92-2.96,4.59-.97,2.57-1.29,5.33,2.67,5.66,11.54,.95,21.25,6.08,30.06,13.18,5.54,4.47,11.85,5.85,18.8,5.52,5.47-.26,10.97-.38,16.44-.17,4.26,.16,8.49,.9,13.08,1.42-4.8-9.13-9.33-17.75-14.41-27.4-1.23,2.82-1.78,4.19-2.43,5.52-2.45,4.98-6.14,8.75-11.42,10.59-3.48,1.22-6.97,1.3-9.26-2.46-4.06-6.68,.08-15.29,7.8-16.24,2.6-.32,5.19-.62,7.97-.95-7.84-5.08-15.49-9.46-22.47-14.72-8.54-6.44-15.17-16.92-14.39-21.66,2.92,3.85,5.64,7.46,8.38,11.08,.97-3.36,1.31-6.32,2.65-8.72,1.59-2.86,4.59-3.5,7.56-1.94,3.09,1.63,2.9,4.33,1.69,7.11-.49,1.12-1.47,2.17-1.52,3.29-.16,3.37-1.35,8.25,.37,9.84,4.13,3.84,9.69,6.16,14.68,9.09,.21-.36,.43-.71,.64-1.07-1.22-1.74-2.56-3.4-3.64-5.23-1.07-1.82-2.14-3.71-2.77-5.71-1.59-5.12,.62-10.02,5.23-11.62,5.46-1.9,10.17-.22,14.29,3.51,3.86,3.49,4.67,7.93,2.89,12.51-1.3,3.33-3.78,6.19-5.31,9.45-.58,1.24-.55,3.38,.16,4.51,2.9,4.6,6.1,9.01,9.33,13.39,5.49,7.44,11,14.85,16.7,22.13,1.17,1.49,3.19,2.33,5,3.59-1.47-3.56-3.67-6.51-3.75-9.52-.29-10.97,9.27-17.03,19.09-12.55,.83,.38,1.65,.79,2.42,1.28,6.77,4.31,8,9.94,3.69,16.68-.82,1.28-1.75,2.51-2.47,3.84-2.84,5.27-1.72,7.15,4.17,8.27,13.23,2.51,25.65-5.1,38.82-2.93,.13,.02,.33-.04,.42-.14,.96-.92,2.49-1.76,2.68-2.83,.16-.91-1.08-2.24-1.97-3.11-1.08-1.04-2.53-1.7-3.69-2.67-6.35-5.33-5.41-12.46,2.02-15.97,1.5-.71,3.29-1.36,4.23-2.58,4.83-6.33,10.87-6.04,17.68-4.16,3.13,.86,3.47,2.36,2.83,4.9-.58,2.32-1.59,4.62-1.7,6.97-.26,5.3-.08,10.63-.08,16.95,4.44-2.24,9.42-4.08,13.62-7.03,5.31-3.73,5.35-7.76,.93-12.49-2.83-3.03-4.12-6.39-3.04-10.43,1.3-4.87,7.85-9.53,14.12-10.13,5.41-.52,8.01,2.77,9.84,8.43,7.33-11.82,10.86-26.4,28.92-27.42-2.72-2.87-4.5-4.14-5.42-5.87-1.65-3.07-4.51-6.89-3.78-9.54,1.53-5.5,4.78-10.64,8.02-15.45,.77-1.14,4.98-1.34,6.35-.31,1.29,.96,1.22,4.15,1.16,6.34-.04,1.18-1.66,2.25-1.96,3.51-.35,1.44-.47,3.26,.11,4.54,1.1,2.42,2.77,4.59,4.39,7.15,8.23-9.54,14.86-20.87,27.78-24.76,.28,.3,.56,.6,.84,.9-4.72,4.31-9.43,8.63-14.15,12.94,2.95-.04,5.31-.93,7.73-1.66,5.65-1.71,8.53,2.3,10.47,9.29,1.19,4.28-1.85,7.27-7.32,7.69-5.77,.45-11.57,.55-17.34,.97-1.39,.1-3.24,.44-4,1.38-5.53,6.79-12.75,9.53-21.27,9.78-4.47,.13-7.71,2.51-9.78,6.48-2.45,4.69-4.93,9.38-7.49,14.25,1.03-.24,2-.47,2.98-.69Zm-124.21,196.62c-3.76,0-7.4,.14-11.02-.04-3.03-.15-6.13-.35-9.02-1.17-1.36-.39-2.9-2.16-3.17-3.54-.16-.8,1.86-2.66,3.18-3.01,2.76-.74,5.7-.97,8.58-1.09,48.56-2.15,97.16-3.58,145.67-6.54,48.06-2.94,95.95-8.08,143.41-16.52,22.59-4.01,44.5-10.4,64.58-21.93,2.91-1.67,5.46-3.95,9.22-6.72-33.37-15.51-67.5-19.17-102.22-21.46-.09,1.96-.16,3.47-.24,4.97-.56,11.11-1.05,22.23-1.73,33.33-.36,5.88-1.73,6.75-7.3,5.61-.95-.19-2.06,.14-3.05,.39-4.58,1.15-9.11,2.49-13.72,3.51-17.31,3.84-34.76,6.42-52.57,5-1.57-.12-3.1-.7-4.65-1.07,.05-.55,.1-1.1,.15-1.65,6.26-.56,12.57-.83,18.79-1.73,16.41-2.36,32.79-4.93,49.16-7.58,1.55-.25,4-1.48,4.16-2.53,.66-4.45,.62-9,.84-13.8-1.73,.19-2.92,.33-4.11,.46-24.97,2.75-49.93,5.55-74.92,8.13-2.12,.22-4.39-1.1-6.59-1.7,1.99-.98,3.91-2.63,5.98-2.82,15.93-1.47,31.89-2.65,47.84-3.93,10.58-.84,21.16-1.69,31.89-2.54,.18-3.8,.36-6.97,.48-10.15,1.26-35.53,.68-71.02-1.82-106.49-.29-4.08-1.96-6.86-5.39-8.88-5.36-3.15-10.66-6.4-14.97-9-6.23,3.05-11.48,7.01-17.3,8.22-21.68,4.5-43.64,6.84-65.84,4.31-2.31-.26-3.91-.22-5.27,2.15-2.55,4.45-6.98,6.25-11.84,6.76-4.84,.51-9.73,.58-14.58,1-1.21,.11-2.55,.58-3.53,1.3-5.39,3.95-10.69,8.03-15.64,11.79,2.49,2.26,5.65,5.32,9.01,8.13,1.8,1.5,3.56,3.07,6.4,.95,4.97-3.71,10.19-7.16,15.6-10.19,1.8-1.01,5.55-1.38,6.63-.28,3.47,3.5,6.68,7.55,8.82,11.95,1,2.05,.16,6.05-1.34,8.05-3.15,4.21-6.79,8.41-11.11,11.31-7.73,5.19-17.71,2.81-18.29-7.56-.08-1.52-.12-3.12-.66-4.5-.53-1.35-1.43-2.78-2.58-3.61-3.15-2.28-6.79-3.94-9.73-6.44-4.65-3.96-9.77-6.07-15.85-5.69-6.78,.43-13.55,.97-20.33,1.43-2.28,.15-4.59-.01-6.84,.33-10.81,1.64-10.8,1.69-10.96,12.55-.01,.76,0,1.53-.09,2.28-.39,3.34-1.83,6.02-5.47,6.29-3.67,.27-6.47-1.47-7.82-5.03-.5-1.33-.71-2.76-1.15-4.54-3.57,2.61-6.64,5.1-9.95,7.23-9.98,6.43-20,12.78-30.13,18.96-1.19,.73-3.18,.15-4.8,.17,.9-1.46,1.46-3.45,2.76-4.29,8.29-5.4,16.86-10.38,25.1-15.84,6.1-4.04,11.84-8.62,17.38-12.69-10.22-3.74-20.15-7.38-30.58-11.2-.09,1.49,.08,3.14-.34,4.62-1.04,3.71-1.71,7.76-3.72,10.92-2.52,3.97-7.73,4.56-11.87,2.44-4.11-2.1-5.91-6.4-4.5-11.26,1.65-5.73,4.26-10.66,11.49-11.3-8.43-6.2-13.48-7.54-25.91-5.96-6.42,.82-12.41,.06-18.35-2.25-2.81-1.09-5.71-1.95-8.99-3.06-1.71,3.16-3.5,6.14-4.99,9.27-3.41,7.16-7.17,8.94-14.67,6.21-4.29-1.56-8.03-1.65-12.14,.85-4.87,2.96-10.11,.21-9.93-5.47,.13-4,1.83-8.2,3.76-11.81,1.64-3.05,4.62-5.38,7.35-8.41-2.86-.14-5.25-.28-7.64-.36-10.26-.35-19.35-3.73-27.24-10.35-1.74-1.47-3.51-3.08-5.55-3.95-1.25-.53-3.67-.32-4.47,.56-1.78,1.96-2.86,4.54-4.24,6.87-2.09,3.51-3.76,7.39-6.39,10.44-5.34,6.19-9.61,6.89-17.1,3.61-.41,1.82-1.12,3.58-1.14,5.35-.1,8.51-.21,17.04,.06,25.55,.47,14.9,1.37,29.79,1.74,44.69,.15,6.02-.6,12.07-.92,17.86-.35,.05,.59-.08,1.65-.23,.2,3.02,.38,5.68,.57,8.51,5.68-2.98,10.77-5.95,16.11-8.39,9.32-4.26,18.53-8.56,25.82-16.08,.78-.8,2.59-.61,3.92-.88,.16,1.34,.8,2.84,.41,3.99-2.26,6.76-5.29,13.3-7.07,20.17-3.98,15.32-12.47,26.92-26.41,34.47-6.01,3.25-12.08,6.4-18.34,9.71,.9,.56,1.76,1.11,2.64,1.64,8.66,5.24,15.99,11.93,20.07,21.28,1.81,4.16,2.46,9.07,2.58,13.67,.12,4.7-2.25,6.05-6.9,5.04-5.65-1.23-11.26-3.53-16.92-3.62-10.06-.17-18.73-3.58-27.07-8.58-6.79-4.07-13.85-7.75-20.32-12.27-6.44-4.5-6.99-12.55-1.71-18.37,.96-1.06,3.01-1.14,4.55-1.67,.19,1.52,.48,3.03,.53,4.55,.02,.53-.54,1.07-.82,1.61-2.7,5.24-2.23,7.46,2.87,10.54,7.69,4.65,15.66,8.85,23.26,13.63,10.63,6.68,23.19,3.28,35.12,8.26-3.95-12.26-11.24-19.92-20.94-25.37-2.24-1.26-5.19-1.66-7.83-1.71-4.71-.09-9.43,.56-14.15,.58-2.82,.01-6.06-.74-5.74-4.36,.43-4.96-2.04-8.42-5.55-10.62-4.5-2.82-6.13-6.93-7.41-11.47-.99-3.51-1.75-7.09-2.55-10.66-1.67-7.49-6.89-12.06-13.23-16.62,.63,7.41,.85,14.16,1.86,20.78,.87,5.67,2.64,11.19,4.23,17.66-1.54-1.34-3.22-2.25-4.1-3.66-3.69-5.92-4.64-12.59-5.07-19.44-.25-3.99-1.2-7.94-1.79-11.68-4.13,1.32-7.55,2.3-10.89,3.5-8.72,3.13-17.62,5.89-26.04,9.7-6.19,2.8-6.14,6.67-.74,10.53,12.73,9.1,27.32,14.05,41.98,18.85,1.05,.34,1.96,1.09,2.93,1.65-.9,.83-1.69,1.86-2.74,2.42-1.02,.55-2.39,1.03-3.45,.81-7.7-1.62-15.39-3.35-23.03-5.23-1.88-.46-3.64-1.53-5.38-2.45-5.46-2.9-10.89-5.86-16.58-8.93,0,8.58,.07,16.77-.05,24.96-.03,2.23-.99,4.47-.86,6.67,.15,2.63,1.4,5.22,1.45,7.84,.06,3.92,2.57,4.93,5.54,5.67,3.08,.78,6.32,1.11,9.25,2.26,33.67,13.24,68.23,23.45,103.68,30.61,50.34,10.17,101.27,14.75,152.55,15.87,5.43,.12,10.87,.02,16.39,.02,.63-16.19,1.26-32.27,1.92-49.02Zm105.88,167.96c-4.61,.04-6.47,1.35-6.2,6.47,1.11,20.85,1.62,41.74,2.25,62.61,.06,1.88-.55,3.77-.85,5.66-.78-.06-1.56-.12-2.34-.18-1.14-23.97-1.05-47.99-1.03-71.98-8.84-.34-9.61,.38-9.5,8.24,.32,22.25,.62,44.51,.87,66.76,.03,2.27-.36,4.54-.56,6.82-.76-.03-1.51-.06-2.27-.09-.95-26.55,.43-53.13,.54-79.82-8,.95-15.7,1.73-23.32,2.93-1.09,.17-2.66,2.4-2.65,3.67,.08,14.61,.4,29.21,.72,43.81,.03,1.41,.52,2.8,.8,4.21,1.26-1.12,1.75-2.21,2.12-3.33,3.97-11.86,5.2-24.08,4.73-36.52-.06-1.55,.41-3.13,.63-4.69,.5,0,1,0,1.5,.01,.41,1.65,1.09,3.29,1.19,4.96,.7,11.79-.14,23.46-3.26,34.89-.6,2.2-.99,4.58-2.15,6.46-.91,1.47-2.91,3.24-4.32,3.15-1.5-.09-3.39-1.95-4.18-3.5-.92-1.81-1.11-4.13-1.15-6.24-.25-12.18-.41-24.36-.49-36.54-.02-3.14,.34-6.28,.55-9.72-1.24,0-2.13-.04-3.01,0-12.18,.57-24.35,1.38-36.53,1.67-21.73,.51-43.31-.65-63.97-8.32-5.77-2.14-11.3-4.95-17.02-7.48-.18,.45-.47,.84-.48,1.25-.85,25.27-1.65,50.54-2.55,75.81-.12,3.36,1.53,4.63,4.46,5.72,38.77,14.39,78.73,19.83,119.91,16.13,21.41-1.92,42.26-6.03,60.67-18.01,1.75-1.14,3.37-4.06,3.34-6.13-.24-17.07-.95-34.13-1.36-51.19-.19-7.7-.03-15.4-.03-23.55-4.66,1.85-8.7,3.45-12.87,5.1,.87,12.11,1.87,24.13,.89,36.13-.74,.02-1.49,.03-2.23,.05-1.14-11.58-.94-23.24-.84-35.22Zm2.95-27.73c1.65,8.87-3.67,12.26-9.14,15.13-4.41,2.32-9.1,4.62-13.93,5.56-28.39,5.51-57.02,7.87-85.91,5.13-5.73-.55-11.48-1.61-17.02-3.13-1.71-.47-2.78-3.24-4.15-4.95,1.94-1.04,3.81-2.26,5.85-3.05,.86-.33,2.06,.33,3.12,.45,7.26,.79,14.55,2.38,21.78,2.17,19.79-.56,39.57-1.58,59.32-3,9.87-.71,19.56-2.89,28.39-7.91,2.85-1.62,3.28-3.48,2.47-6.38-2.06-7.4-7.49-11.59-13.82-14.99-7.9-4.25-16.06-8.1-23.62-12.89-7.42-4.7-11.72-11.97-12.53-20.82-.44-4.76-.08-9.59-.08-14.77-4.24,.54-7.94,1-11.97,1.51,1.47,15.81-.89,32.26,13.97,43.98-2.28,.31-3.96,.17-5.15-.67-4.91-3.46-8.47-8.11-9.46-14.05-1-5.98-1.29-12.09-1.67-18.15-.23-3.56-.04-7.14-.04-10.43h-11.27c0,12.95,.34,25.44-.17,37.9-.2,5.01-1.78,10.16-3.74,14.82-.79,1.88-4.54,3.89-6.48,3.5-1.67-.33-3.69-3.95-3.79-6.19-.51-11.75,4.46-22.3,8.01-33.17-.09,3.47-.75,6.81-1.51,10.14-1.22,5.34-2.72,10.63-3.68,16.02-.64,3.59-1.32,7.44,2.56,12,1.8-4.18,3.97-7.27,4.39-10.59,1-7.84,1.33-15.78,1.61-23.7,.24-6.8,.05-13.61,.05-20.83h-14.01c-.07,.83-.19,1.71-.2,2.58-.22,20.93-11,36.64-30.46,44.45-4.24,1.7-8.65,3.14-12.57,5.39-5.26,3.03-9,7.28-7.63,14.16,.61,3.05-.33,5.66-3.74,6.2-3.27,.52-5.08-1.67-5.98-4.49-.61-1.91-.81-3.95-1.23-6.08-8.73,5.86-8.8,8.93-.77,14.17,19.06,12.43,40.4,16.7,62.67,16.94,14.62,.16,29.27-.35,43.87-1.2,18.42-1.07,36.75-3.21,54.45-8.85,4.18-1.33,8.25-3.1,12.21-5,4.69-2.25,5.09-10.64-.11-13.23-2.41-1.2-4.97-2.09-8.89-3.7Zm51.28-148.15c-10.53,.85-20.06,1.85-29.62,2.35-32.84,1.72-65.68,3.3-98.53,4.83-2.78,.13-4.14,.81-4.16,3.87-.08,10.5-.49,21-.49,31.51,0,4.92,.64,9.85,.98,14.57,1.02,.19,1.32,.3,1.61,.29,39.7-1.5,79.41-3.05,119.12-4.46,3.06-.11,3.73-1.45,4.07-4.11,1.07-8.3,2.42-16.55,3.63-24.83,1.13-7.78,2.2-15.57,3.4-24.01Zm111.45-13.17c-7.41,1.08-13.85,2.18-20.33,2.94-24.48,2.89-48.97,5.74-73.48,8.43-3.43,.38-4.98,1.49-5.51,5.04-1.19,7.97-2.96,15.84-4.31,23.79-1.36,8.01-2.5,16.05-3.82,24.61,36.35-2.89,71.57-7.89,105.94-17.06,.51-16.11,.99-31.6,1.5-47.74Zm80.51-25.55c-.5-.17-1.01-.34-1.51-.51-22.11,12.45-46.04,19.7-70.35,24.41,0,13.99,.03,27.53-.04,41.06,0,1.68-.55,3.36-.85,5.04-.57-.07-1.14-.14-1.71-.21v-44.99c-.54-.2-1.08-.4-1.62-.6-.78,1.21-2.22,2.4-2.23,3.62-.16,14.75-.1,29.51-.1,44.43,1.21-.31,2.95-.73,4.67-1.21,21.75-6.1,42.59-14.51,63.07-24,4.34-2.01,6.77-4.09,7.15-9.02,.96-12.69,2.32-25.35,3.52-38.02Zm-579.29-33.85c2.34,3.6,4.79,6.56,6.31,9.94,1.52,3.39,2.05,7.22,3.11,10.83,1.01,3.45,1.5,7.29,3.39,10.21,2.92,4.51,6.83,8.38,10,12.14,6.05-9.29,12.69-19.45,19.28-29.64,.47-.72,.76-1.64,.87-2.5,.75-5.89-2.88-12.21,1.24-16.6-14.24,1.81-29.15,3.7-44.19,5.62Zm32.18,43.66c21.58,2.41,55.16-29.3,54.24-49.3-6.66,3.6-13.76,7.06-20.45,11.19-4.74,2.92-9.1,6.54-13.27,10.24-1.68,1.49-2.2,4.21-3.62,6.09-5.44,7.18-11.02,14.24-16.9,21.79Zm190.07,104.71c2.02,.34,3.79,.73,5.59,.93,19.33,2.13,38.54,1.39,57.63-2.43,6.5-1.3,6.52-1.19,6.29-7.87h-69.51v9.37Zm29.9-67.76h-12.43v49.18h12.43v-49.18Zm-23.57-.03c0,14.75-.09,29.01,.04,43.27,.06,6.58,1.04,7.13,8.36,5.4v-48.67h-8.41Zm-112.04-164.99c6.02-5.54,12.44-6.5,19.64-3.43,1.06,.45,3.45-.63,4.35-1.72,2.38-2.88,4.28-6.16,6.37-9.28-9.19-7.04-17.41-7.37-25.14-.97-5.89,4.88-7.82,9.99-5.21,15.4Zm281.36,156.15c-7.83,.43-7.87,.42-8.82,7.4-1.47,10.84-2.89,21.69-4.33,32.54-.57,4.27-1.16,8.53-1.74,12.84,5.87,.16,5.83,.15,6.64-4.89,1.13-7.05,2.28-14.1,3.49-21.13,1.52-8.79,3.12-17.56,4.76-26.76Zm-162.09-154.06c2.25-4.46,4.66-8.6,6.42-13.01,.79-1.97,1.16-5.05,.15-6.63-4.43-6.99-12.78-6.52-16.64,.61-2.85,5.25,4.34,17.96,10.07,19.03Zm-191.29-172.59c8.04-8.84,6.8-19.79,8.38-30.28-14.36,6.25-18.76,21.63-8.38,30.28Zm76.57,125.5c-4.59-2.78-9.48-5.73-14.84-8.97-.83,3.43-1.95,6.44-2.14,9.5-.09,1.59,1.05,3.89,2.37,4.81,3.86,2.69,8.09,4.84,11.68,6.92,.91-3.83,1.88-7.86,2.93-12.26Zm209.75,66.07c.65,2.62,1.01,5.19,1.96,7.53,.54,1.33,1.94,3.08,3.09,3.19,1.44,.13,3.24-.96,4.5-2,1.83-1.5,3.2-3.54,4.97-5.14,1.81-1.64,5.03-2.6,2.84-5.91-1.85-2.8-3.78-5.56-7.95-2.58-2.91,2.08-6.39,3.37-9.41,4.91Zm-141.49-66.8c1.25-3.75,2.04-6.3,2.95-8.82,1.97-5.44,.84-8.67-4.56-10.82-1.97-.78-5.57-1.13-6.48-.04-1.26,1.51-1.64,5.04-.71,6.84,2.17,4.23,5.35,7.94,8.8,12.83Zm21.82,48.9c-8.13-.25-10.8,1.48-12.35,8.43-.39,1.75,.1,4.91,1.21,5.51,1.96,1.05,5.3,1.59,6.99,.57,1.98-1.19,3.32-4.14,4.01-6.59,.66-2.37,.14-5.07,.14-7.92Zm-151.4-232.63c-.45,.38-.89,.76-1.34,1.13,2.91,4.68,5.89,9.32,8.71,14.05,2.07,3.47,4.49,2.03,6.91,.7,2.76-1.52,2-3.76,.9-5.87-3.22-6.18-8.94-8.51-15.18-10.01Zm239.08,226.58c1.02-3.67,2.5-6.84,2.66-10.07,.23-4.58,1.6-8.25,5.1-11.19,.74-.62,1.28-1.49,2.17-2.56-4.15-1.19-6.42,.57-8.51,3.28-2.95,3.83-6.12,7.49-9.38,11.43,1.77,2.03,4.33,4.95,7.96,9.11Zm-108.89-35.34c-4.8,1.14-8.98,1.85-12.96,3.18-3.18,1.06-4.21,5.39-2.41,8.55,1.78,3.12,4.41,2.9,7.07,1.41,4.7-2.64,7.12-6.87,8.3-13.14Zm-123.52,3.78c-.32-.22-.65-.45-.97-.67-4.1,1.47-8.3,2.73-12.25,4.52-1.54,.7-3.76,2.86-3.54,3.89,.43,1.99,2.07,4.14,3.83,5.25,.95,.6,3.79-.29,4.71-1.39,3.01-3.64,5.53-7.69,8.23-11.59Zm-.2-266.4c.11-.55,.22-1.1,.34-1.64-4.8-2.63-9.6-5.26-14.83-8.13-1.8,3.42-3.33,6.33-5.14,9.77h19.63Zm2.68,40.63c-4.43-4.59-8.86-9.17-13.68-14.17-1.71,9.42,4.9,17.02,13.68,14.17Zm25.39-43.68c-.4-.35-.8-.69-1.21-1.04-3.33,2.21-6.66,4.43-10.49,6.98,3.65,2.39,6.35,4.16,9.49,6.23,.78-4.29,1.49-8.22,2.2-12.16Zm161.24,319.1c-4.3,1.32-6.94,3.87-6.25,8.26,.22,1.4,2.41,2.5,3.7,3.73,.85-1.22,2.24-2.37,2.43-3.69,.38-2.64,.11-5.38,.11-8.31Zm-215.59-76.48c-7.97,9.24-8,11.81-.84,14.21,.26-4.39,.52-8.73,.84-14.21Zm123.52-1.32c1.29-3.09,2.53-5.52,3.29-8.1,.35-1.19-.23-2.66-.39-4-1.45,.39-3.56,.3-4.22,1.24-2.66,3.76-1.28,7.3,1.32,10.86Zm205.38-11.97c-1.43,5.04-.32,7.26,5.68,9.93-1.85-3.23-3.7-6.46-5.68-9.93Z"/>
      <path class="c" d="M681.6,365.17c-6.03,1.86-8.98,6.67-11.4,11.97-1.52,3.32-2.75,6.79-4.56,9.94-2.25,3.89-5.85,5.03-10.22,3.87-6.76-1.79-12.39-7.67-12.34-13.01,.05-5.88,3.06-9.01,8.96-9.28,1.04-.05,2.08,0,3.15-.53-3.76-.41-7.52-1.09-11.29-1.15-3.84-.06-10.67,9.36-9.47,13.26,1.66,5.36,3.83,10.58,5.97,15.78,3.57,8.67-1.33,15.93-10.66,15.64-7.15-.22-13.12-9.37-10.35-15.99,.85-2.04,2-3.96,2.47-4.86-8.44,.72-17.25,1.77-26.09,2.1-4.02,.15-5.33,1.72-6.53,5.29-1.78,5.29-4.08,10.53-7.02,15.26-3.45,5.54-12.11,6.05-18.92,1.83-6.04-3.74-8.85-11.41-5.53-16.94,1.42-2.37,4.29-4.1,6.84-5.5,1.9-1.05,4.34-1.11,7.18-1.75-3.68-3.16-6.78-6.23-10.29-8.73-3.9-2.77-5.08-2.18-6.38,2.3-.34,1.17-.49,2.39-.82,3.56-1.98,7.13-8.38,11.11-15.5,9.4-.93-.22-1.94-1.78-2.19-2.88-1.4-6.32-.3-9.79,4.55-14.65-.96-.12-1.62-.23-2.3-.29-9.73-.87-14.68-5.2-17.24-14.77-1.19-4.43-2.69-8.77-3.94-12.78-4.38,1.24-7.53,2.83-10.64,2.77-2.09-.04-4.12-2.42-6.19-3.75,1.56-1.41,3.03-2.93,4.71-4.18,.91-.68,2.17-.91,3.36-1.38-10.94-12.02-11.58-13.22-9.36-17.38,2.67,4.11,5.37,8.27,8.07,12.43,.5-.19,1-.39,1.5-.58,0-2.98-.3-6,.09-8.94,.35-2.65,1.04-5.43,2.36-7.7,.7-1.21,3.24-2.25,4.6-1.92,1.15,.28,2.28,2.54,2.58,4.08,1.34,6.96-1.04,13.21-4.47,19.47,1.1,1.03,2.11,2.12,3.26,3.04,5.81,4.59,9.48,10.55,11.89,17.5,1.98,5.71,5.89,7.98,12.48,7.54-1.41-2.88-2.67-5.59-4.06-8.23-1.79-3.4-1.45-6.59,.14-10.04,2.06-4.47,3.62-9.17,5.49-13.73,.43-1.06,1.23-1.97,2.73-2.98-2.11,7.82,3.33,11.46,7.22,16.16,1.39,1.68,1.15,5.28,.65,7.8-.79,3.96-2.44,7.75-3.88,12.09,8.97-.66,16.19,2.76,22.69,8.72,2.06,1.89,5.77,1.98,9.37,2.45-10.42-8.71-.38-16.01,.45-23.74,8.77-.19,15.08,9.59,14.52,22.58,3.62-.18,7.19-.36,10.11-.51-2.16-5.99-4.61-11.74-6.28-17.71-2.39-8.52,.78-16.68,7.89-21.77,.77-.55,2.1-1.12,2.77-.81,.67,.3,1.12,1.7,1.16,2.63,.07,1.81-.6,3.72-.27,5.45,.91,4.85,1.91,9.72,3.37,14.43,1.26,4.06,3.19,7.91,4.45,10.95,3.39-3.76,7.67-8.52,11.95-13.28,.16,.58,.33,1.16,.49,1.75-1-3.12-2.28-6.18-2.91-9.38-.53-2.66-.33-5.47-.4-8.21-.2-7.01,3.77-9.52,10.37-6.88,7.02,2.81,14.15,5.32,22.02,8.26,.34-4.52,.74-8.1,.85-11.68,.68-22.24,1.41-44.48,1.89-66.72,.2-9.29-2.96-11.69-12.07-11.41-11.73,.36-23.47,.22-35.21,.16-45.27-.22-90.55-.5-135.82-.78-2.12-.01-4.37,.03-6.33-.63-1.25-.42-2.89-2.12-2.86-3.2,.04-1.17,1.69-3.09,2.86-3.27,4.04-.63,8.18-.86,12.29-.87,47.87-.05,95.74-.03,143.61-.03,2.41,0,4.82,0,8.17,0,1-33.52,1.99-66.66,2.94-98.64-5.73-2.94-11.04-5.67-16.25-8.35,0,.05,.03,1.12,0,2.19-.19,5.87,0,11.79-.79,17.58-.4,2.88-.09,5.06,.98,7.68,2.11,5.16,4.43,10.44,5.22,15.88,.95,6.6-2.47,8.71-8.7,6.49-.85-.3-1.83-.72-2.65-.56-4.06,.82-6.24-1.5-7.62-3.97-4.34,5.34-8.55,10.95-13.22,16.14-2.92,3.25-4.94,2.83-6.9-1.21-3.52-7.24-2.91-14.16,2.51-20.36-7.23-5.57-6.47-11.77,2.22-14.95,4.64-1.7,9.74-2.41,14.7-2.92,3.25-.33,4.99-1.47,5.77-4.59,1.53-6.09,2.6-12.17,.79-19.83-1.04,2.62-1.65,4.02-2.16,5.47-2.92,8.36-13.57,14.99-22.41,13.94-5.11-.61-7.44-5.72-4.51-10.83,1.79-3.12,2.86-6.06,2.95-9.77,.04-1.7,2.86-4.26,4.86-4.79,3.76-1,7.84-.81,11.78-1.11,3.31-.25,5.44-1.6,6.68-5.04,1.38-3.82,4.09-7.17,5.45-10.99,1.54-4.34,2.65-8.94,3.17-13.51,.42-3.65-.94-6.65-4.77-8.88-3.26-1.9-5.93-5.27-8.04-8.53-2.53-3.89-5.28-5.04-9.96-2.65,8.68,5.41,8.33,14.04,7.8,22.41-.22,3.48-1.68,7.17-3.52,10.19-3.32,5.46-9.99,5.24-13.42-.06-5.11-7.89-7.65-16.2-3.15-26.39-7.55,3.82-11.95,.5-15.22-4.86-3.87-6.33-7.66-12.74-10.93-19.39-1.93-3.91-1.68-8.15,2.47-11,3.45-2.38,6.6-1.54,10.98,2.37,6.02,5.36,12.16,10.61,17.93,15.63,3.83-7.15,5.48-15.49-.43-24.84-6.1-9.65-5.13-21.07-5.23-32.03,0-.79,.65-1.58,1.59-3.75,1.09,2.57,2.09,4,2.26,5.52,.39,3.47,.61,7,.48,10.5-.34,8.71,1.04,16.87,5.57,24.56,3.49,5.93,1.96,12.43,.54,18.72-.41,1.84-.87,3.66-1.31,5.5,.34,.25,.68,.5,1.03,.75,2.72-1.96,6.19-3.39,8.01-5.99,3.43-4.91,9.04-8.87,8.33-16.04-.11-1.12,.4-2.46,1.01-3.46,3.64-5.92,6.21-12.08,6.77-19.18,.13-1.65,3.51-4.39,5.19-4.25,2.12,.18,4.91,2.43,5.8,4.48,.9,2.06,.2,5.09-.47,7.5-.96,3.47-2.53,6.76-4,10.56,4.09-.59,7.85-.96,11.54-1.7,5.52-1.11,9.13,.11,10.91,4.02,1.79,3.93,.01,9.85-4.12,12.43-7.83,4.88-15.85,4.27-23.98,.51-1.47-.68-3.35-.51-5.03-.74-.02,.4-.05,.79-.07,1.19,4.1,2.69,8.12,5.5,12.34,7.98,1.09,.64,2.82,.46,4.22,.29,9.1-1.06,18.19-2.21,27.53,1.74,2.41-5.89,6.84-5.11,11.77-3.58,4.05,1.26,8.34,1.73,12.42,2.91,1.7,.49,4.52,2.15,4.41,2.91-.3,1.96-1.57,4.78-3.13,5.33-4.51,1.6-9.35,2.25-14.76,3.42,3.49,4.8,6.65,9.91,13.54,11.14,3.86,.69,7.75,1.55,11.37,2.99,1.79,.71,2.99,2.9,4.69,4.64-7.36-.98-13.93-1.85-21.07-2.8,.51,2.65,1.52,4.79,1.14,6.64-.6,2.93-1.4,6.64-3.48,8.2-1.88,1.41-5.97,1.28-8.42,.25-9.14-3.86-10.7-14.21-3.53-20.99,.77-.73,1.77-1.21,2.46-1.67-6.82-12.92-15.86-17.1-30.34-14.55,8.18,14.37,6.43,29.76,5.94,45.02-.75,.06-1.5,.12-2.24,.17v-30.19c-6.24,.49-11.46,.91-16.77,1.33,.38,7.33,1.34,14.17,6.35,20.24,3.62,4.39,6.32,9.74,8.56,15.03,1.82,4.31,2.34,9.16,2.92,13.76,.86,1.51,2.34,2.98,2.47,4.55,.53,6.36,.92,12.76,.86,19.14-.26,26.06-.71,52.11-1.1,78.71,3.17,.33,6.72,.72,10.28,1.07,8.86,.86,14.84,5.68,15.39,14.57,.76,12.29,.24,24.65,.25,36.98,.01,9.87,0,19.73,0,29.41,4.72-8.05,9.58-16.73,14.84-25.16,3.45-5.52,7.31-10.81,11.36-15.91,.91-1.14,4.2-1.97,4.93-1.32,1.22,1.1,2.02,3.68,1.65,5.33-.79,3.53-2.37,6.89-3.75,10.27-3.46,8.45-5.1,17.19-4.69,26.33,.33,7.49-2.21,13.9-6.94,19.77-3.32,4.13-5.8,8.93-8.67,13.43,0,0,.12-.13,.12-.13Zm-6.45-7.05c13.64-11.98,13.9-27.99,13.48-44.38-5.45,8.86-10.83,17.82-15.48,27.14-2.9,5.82-1.59,11.76,2,17.24Zm-85.34,35.02c-9.34-.81-16.99,2.95-24.95,4.98-1.05,.27-2.06,1.78-2.56,2.95-1.59,3.73,.76,8.35,5.29,10.85,5.27,2.91,9.45,2.56,11.95-1.41,3.45-5.46,6.59-11.11,10.27-17.37Zm-20.88-330.94c-.41,.09-.83,.18-1.24,.28,.1,1.68-.21,3.53,.39,5.01,2.55,6.3,5.1,12.62,8.18,18.66,2.23,4.37,5.94,5.04,9.82,2,2.12-1.66,3.56-4.18,5.05-6-7.84-7.05-15.02-13.5-22.19-19.94Zm28.24,19.7c-.51,4.41-.63,8.52-1.52,12.47-1.22,5.42-1.08,10.55,1.66,15.43,.89,1.57,2.11,2.96,3.18,4.43,1.83-1.43,4.52-2.48,5.35-4.35,2.86-6.43,3.04-12.93-1.7-18.86-2.34-2.93-4.56-5.95-6.97-9.11Zm37.87,267.15c-.15,2.25-.25,5.23-.58,8.18-.29,2.59,1.01,3.63,3.3,3.86,9.6,.93,19.19,1.84,28.79,2.76,.23-.58,.46-1.17,.69-1.75-2.6-1.8-4.98-4.25-7.85-5.29-7.92-2.87-16.06-5.16-24.36-7.75Zm33.58,20.12c.04,.06-.01-.13-.12-.17-7.15-2.97-13.51,2.16-20.47,2.15-2.4,0-5.39,4.48-2.87,6.62,3.58,3.03,8.61,4.39,13.09,6.29,.41,.17,1.59-.81,2.04-1.5,2.82-4.39,5.53-8.86,8.33-13.38Zm-57.26-287.97c6.61,8.95,13.76,16.28,26.96,12.03-1.49-1.55-2.53-2.99-3.89-3.99-3.92-2.88-8.03-5.5-11.94-8.39-3.78-2.79-7.39-3.41-11.13,.35Zm-18.32,75.15c12.73,1.56,19.23-3.6,20.62-16.02-3.98,.59-7.97,1.14-11.94,1.8-.82,.14-2,.44-2.31,1.04-2.17,4.22-4.15,8.54-6.37,13.18Zm36.71,226.64c-2.62,4.03-5.58,8.11-8.02,12.47-2,3.57-.37,7.06,3.64,10.7,3.36,3.05,5.26-.26,7.49-1.44,3.91-2.07,1.75-5.13,.88-7.96-1.4-4.6-2.68-9.23-3.99-13.78Zm-15.92-.42c2.77-4.7,2.18-8.74-.23-13.17-1.99-3.65-3.05-7.84-4.26-11.87-.61-2.02-.65-4.22-1.01-6.74-7.85,10.1-4.74,27.21,5.51,31.77Zm-29.82-17.78c-1.05,2.73-1.98,5.11-2.87,7.51-2.13,5.71,2.17,12.49,8.2,12.57,.97,.01,2.55-1.5,2.85-2.59,1.86-6.79-1.32-13.65-8.17-17.5Zm40.17-302.35l.45,1.64c6.32,3.81,15.51,4.12,20.05,.28,1.27-1.07,1.62-3.25,2.39-4.92-1.54-.32-3.08-.85-4.63-.9-1.49-.05-3.01,.31-4.48,.64-4.6,1.04-9.18,2.16-13.77,3.25Zm-80.34,286.32c-6.76,11.13-6.77,13.28-.36,20.67,6.27-7.94,6.36-11.48,.36-20.67Zm-4.61,44.38c9.38,1.63,10.6-5.65,13.59-11.29-11.89-1.09-16.23,2.6-13.59,11.29Zm83.51-222.18c-.42-.06-.85-.11-1.27-.17-1.29,2.53-2.79,4.98-3.83,7.61-2.29,5.81-.86,8.25,5.1,9.23,.98,.16,1.96,.38,4.2,.81-1.52-6.33-2.86-11.91-4.2-17.48Zm13.96-28.65c-3.6-8.03-6.75-15.06-10.2-22.77-3.15,14.22-1.75,17.41,10.2,22.77Zm-27.1,41.23c-9.73,2.66-15.23,11.02-11.18,17.42,3.95-6.16,7.57-11.79,11.18-17.42Zm67.28-68.97c-1.19-4.97-2.18-9.09-3.25-13.58-6.82,6.42-6.14,9.93,3.25,13.58Zm-65.84,57.22c-10.35-.93-16.81,2.38-15.38,7.55,5.18-2.54,10.28-5.05,15.38-7.55Zm-99.27,165.03c.42,.09,.84,.19,1.26,.28,1.18-4.1,2.35-8.21,3.53-12.31-.61-.17-1.21-.34-1.82-.51-4.14,3.25-2.75,8.13-2.97,12.53Z"/>
      <path class="c" d="M413.49,95.81c-3.82,5.72-7.42,11.1-11.03,16.49-.64-.45-1.28-.9-1.91-1.34,6.93-11.92,9.99-26.44,24.36-33.74-6.07-2.35-8.82-7.34-10.57-13.16-.75-2.48-1.71-4.89-2.61-7.32-1.83-4.96,.57-8,5.87-7.18,5.47,.85,8.65,4.66,11.37,9.09,3.15,5.14,6.46,10.18,9.71,15.26,.41-.12,.81-.24,1.22-.36,.47-4.13,.89-8.27,1.46-12.39,.15-1.1,.75-2.14,1.15-3.2,.99,.54,2.15,.9,2.95,1.65,5.76,5.41,9.19,11.77,7.42,19.9,8.02,2.41,15.52-1.74,19.81-11.03-9.42-3.58-16.01-10.1-18.93-19.74-17.09,1.53-27.09-3.61-32.52-16.77-.62-1.51-.47-4,.43-5.25,.57-.79,3.4-.66,4.82-.04,7.38,3.21,14.63,6.71,21.92,10.12l.95-.85c-4.29-5.16-8.57-10.32-12.86-15.47,.1-.15,.19-.31,.29-.46,3.61,2.33,7.23,4.67,11.72,7.57,0-6.67-.19-12.66,.12-18.62,.1-1.85,1.31-4.92,2.45-5.13,1.73-.32,4.28,.89,5.71,2.26,6.76,6.51,8.44,17.53,3.24,26.12-2.73,4.52-2.18,7.98-.77,12.57,2.48,8.05,7.1,13.99,13.47,17.83-2.12-4.91-4.56-10.37-6.84-15.9-3.71-9,.48-16.19,5.57-23.08,1.52-2.06,4.23-1.36,5.42,1.12,.7,1.46,1.28,3.19,2.44,4.19,8.63,7.4,10.59,17.03,9.66,27.71-.14,1.62-.26,3.24-.39,4.95q6.93-.94,8.99,5c3.3-.29,6.66-1.41,9.47-.6,2.9,.83,5.28,3.52,8.14,5.58,4.57-3.87,11.22-4.33,18.41-1.31,1.09,.46,2.79,.05,3.98-.47,1.79-.78,3.31-2.16,5.07-3.04,4.85-2.43,7.71-1.41,10.84,3.07,2.42,3.46,5.03,6.87,7.99,9.87,12.96,13.13,8.68,32.2-8.75,38.08-3.3,1.12-6.76,1.87-10.2,2.49-7.56,1.35-15.09-5.94-13.97-13.57,.22-1.49,1.37-2.84,2.2-4.46-2.08-2.2-4.37-4.62-6.66-7.03,.32-.37,.64-.73,.96-1.1,.98,.69,2.03,1.29,2.94,2.07,2.41,2.09,4.69,4.34,7.16,6.37,2.41,1.98,5.13,2.94,7.85,.61,2.96-2.54,3.61-6.53,1.19-9.45-3.87-4.68-7.82-9.36-12.24-13.52-4.32-4.06-9.58-2.85-14.55-1.3,1.26,4.96,2.75,9.73,3.64,14.61,1.98,10.81-1.23,16.78-11.05,21.61-.74,.36-1.56,1.04-1.86,1.77-4.83,11.83-14.28,15.15-25.95,13.83-11.15-1.26-18.25-5.31-20.38-17.26-.94-5.28-3.68-10.24-5.79-15.85-3.52,.83-8.4-1.14-10.52,4.58-.21,.58-2.86,.91-2.9,.79-.9-2.33-2.36-4.85-2.06-7.12,.21-1.62,2.64-3.81,4.41-4.19,3.05-.65,6.5-.64,9.51,.14,3.32,.86,4.6-.74,5.74-2.42-11-1.58-22.11-3.17-34.19-4.9,1.19,4.1,2.02,6.99,2.87,9.88,2.38,8.04,3.63,16.22,.19,24.16-1.18,2.71-3.62,5.27-6.12,6.91-2.89,1.89-5.78-.39-4.75-3.75,1.89-6.2,.33-11.64-2.23-17.19-1.18-2.54-1.57-5.45-2.45-8.68Zm127.01-19.14c2.75,4.28,4.97,7.99,7.45,11.53,2.93,4.2,3.7,8.5,1.78,13.35-1.65,4.16-5.29,5.01-8.88,5.16-2.66,.11-5.37-1.13-8.04-1.76-.65,9.35,4.65,13.17,13.25,9.33,3.05-1.36,6.13-2.75,8.9-4.58,6.32-4.17,7.16-8.07,5.2-15.27-2.33-8.54-10.95-12.05-14.22-19.76-1.7,.62-2.95,1.08-5.43,1.99Zm-44.95,22.67c5.33-1.53,7.8-5.35,5.49-10.57-2.98-6.74-6.64-13.19-10.09-19.93-2.63,1.08-5.02,2.03-7.38,3.04-6.53,2.8-7.29,5.67-2.92,12.44,1.63-2.47,3.15-4.77,4.66-7.06,.49,.12,.99,.25,1.48,.37-.46,2.43-.71,4.92-1.44,7.27-.8,2.59-2.31,4.98-3,7.58-.77,2.87-.33,5.65,2.74,7.52,3.39-3.43,3.82-7.19,2.99-11.49-.25-1.29,.86-2.85,1.35-4.29,1.3,.87,3.42,1.5,3.74,2.64,1.11,3.97,1.6,8.12,2.37,12.49Zm6.39-25.25c-.35,.32-.69,.65-1.04,.97,1.38,2.41,3.15,4.69,4.05,7.28,1.33,3.79,2.92,7.83,2.82,11.72-.2,7.97-9.05,13.2-15.43,9.56-4.13,4.84-8.92,4.56-14.31,.77,3.77,9.01,13.34,11.75,20.28,6.67,1.9-1.39,4.25-2.37,6.54-2.99,6.04-1.62,7.85-3.54,7.75-9.96-.12-8.35-3.32-15.71-8.14-22.39-.55-.76-1.67-1.1-2.53-1.63Zm-2.29,45.1c-9.57,3.53-17.06,.37-23.54-5.53-5.05-4.59-5.15-10.51-1.46-16.5,1.75-2.84,2.86-5.98-.72-8.51-2.29,2.18-4.49,4.05-6.39,6.18-.9,1.02-1.9,2.67-1.7,3.84,1.05,6.1,2.4,12.16,3.8,18.2,.26,1.12,1.05,2.22,1.85,3.09,5,5.39,23.02,7.44,28.15-.77Zm-29.19-87.67c-3.39,2.34-3.75,6.11-2.75,9.88,1.32,4.96,2.83,9.95,5.04,14.56,1.54,3.2,4.38,5.77,7.27,9.42,1.36-13.53,1-25.17-9.57-33.85Zm-41.47,40.66c-7.38-13.31-7.78-13.83-11.42-15.04,1.12,10.7,4.68,15.56,11.42,15.04Zm-4.72,37.58c-.84-6.19-1.67-12.39-2.56-18.99-5.49,5.86-3.03,11.34,2.56,18.99Zm29.38-76.38c5.98-6.21,6.11-13.04,.82-18.36-.29,6.47-.56,12.41-.82,18.36Zm-4.56,45.47c1.41-5.14,.97-9.45-2.68-13.35-2.65,8.02-2.28,9.99,2.68,13.35Zm-4.94-34.38c.32-.49,.64-.97,.96-1.46-3.8-1.68-7.6-3.36-11.41-5.05-.21,.47-.42,.93-.63,1.4,3.69,1.7,7.39,3.4,11.08,5.1Z"/>
      <path class="c" d="M378.56,249.09c-2.33,.86-4.93,1.31-6.94,2.65-5.69,3.79-11.08,8.02-16.7,11.93-5.77,4.02-11.09,3.6-15.99-1.43-2.2-2.26-4.76-4.84-5.49-7.7-.87-3.38-.87-7.6,.45-10.75,1.47-3.5,5.69-3.56,9.32-3.1,1.32,.17,2.61,.57,4.52,1-1.07-1.7-2.1-2.82-2.52-4.13-.42-1.29-.79-3.28-.13-4.04,.69-.79,2.79-.92,4.02-.54,2.6,.8,5.03,2.16,7.55,3.22,2.34,.98,4.72,1.88,7.47,2.97-2.24-5.18-4.62-9.68-6.08-14.47-.72-2.34-.53-5.65,.65-7.73,2.23-3.97,7.81-3.33,11.09,1.1,2.35,3.17,4.18,6.72,6.36,10.02,1.42,2.16,2.98,4.24,4.61,6.24,2.43,2.98,4.97,5.36,9.49,5.11,5.66-.31,10.09,2.65,13.81,6.89,2.23,2.54,4.61,5.29,9.3,4.58-4.36-5.22-7.46-10.66-13.59-13.66-15.89-7.79-15.8-30.87-6.51-41.74,2.03-2.38,3.79-2.34,5.9,.29,3.41,4.24,6.75,8.72,10.91,12.14,11.13,9.16,16.77,20.62,16.57,35,0,.6,.08,1.2,.15,1.8,.01,.12,.16,.22,.41,.54,2.93-.76,5.96-1.54,9.17-2.37-.83-45.68-1.3-91.32,4.79-136.68,.44-.03,.88-.06,1.32-.09,.19,.85,.57,1.71,.55,2.56-.36,17.06-.98,34.12-1.1,51.19-.2,27.28-.12,54.57,0,81.85,0,1.44,1.22,3.59,2.45,4.17,4.25,1.99,8.94,3.06,13.11,5.18,3.98,2.02,8.01,4.44,11.09,7.58,1.85,1.89,2.19,5.47,2.66,8.38,.16,1.01-1.32,2.29-2.06,3.44-1.1-.8-2.77-1.37-3.21-2.44-1.87-4.55-5.66-6.59-9.83-8.26-5.92-2.36-11.74-5.04-17.83-6.83-2.46-.72-5.75,.04-8.17,1.18-1,.47-1.25,3.79-.92,5.64,1.62,8.82-.49,16.6-5.77,23.68-3.56,4.79-8.24,6.08-13.18,3.6-4.24-2.13-6.62-7.61-4.92-12.54,1.08-3.13,2.8-6.07,4.48-8.95,1.44-2.46,3.24-4.72,5.31-7.69-10.13,.58-14.3-7.74-21.56-13.37,0,4.08,.1,7.02-.02,9.94-.22,5.16-.17,10.38-.97,15.46-1.17,7.45-9.05,12.45-16.41,10.96-3.6-.73-5.91-3.99-4.99-7.93,.65-2.76,2.14-5.33,3.24-7.99,1.97-4.78,3.93-9.57,5.9-14.35-.59-.5-1.18-1-1.77-1.5Zm17.12-46.67c-7.03,9-3.83,24.54,6.2,29.23,5.47,2.56,9.71,6.11,12.91,11.11,.67,1.05,1.68,1.88,2.81,3.1,1.61-19.47-12.43-30.21-21.91-43.44Zm29.41,52.88c-1.55,2.26-2.66,3.66-3.54,5.19-3.25,5.68-6.48,11.37-9.58,17.13-.7,1.29-1.58,3.82-1.15,4.15,1.55,1.17,3.7,2.38,5.5,2.23,4.89-.42,7.79-3.64,9.31-8.23,2.16-6.48,1.54-12.9-.55-20.46Zm-36.31-8.97c-1.94,2.53-4.06,4.03-4.22,5.72-.7,7.3-4.54,13.01-8.43,18.79-.49,.73-.79,1.65-.95,2.53-.42,2.42,.54,4.02,3.14,3.68,4.38-.57,8.52-2.15,10.1-6.64,2.61-7.43,2.4-15.06,.36-24.07Zm-25.84,6.14c-4.93-.62-9.42-1.04-13.85-1.81-2.67-.46-5.22-1.73-7.89-2.08-1.1-.14-3.49,1.58-3.42,1.75,1.35,3.57,2.43,7.44,4.68,10.4,2.25,2.96,6.09,2.88,9.13,.75,3.95-2.77,7.58-5.99,11.35-9.02Zm13.83-12.09c-4.53-5.93-8.91-11.66-13.55-17.73,2.77,12.17,4.74,18.54,13.55,17.73Z"/>
      <path class="c" d="M466.37,156.27c1.33,25.13,1.65,50.24,1.43,75.35h-2.49c-.95-25.11,.82-50.24,1.06-75.35Z"/>
      <path class="c" d="M615.49,495.63c1.93-.44,3.83-1.12,5.79-1.29,11.83-1.04,23.67-1.97,35.51-2.94,.3-.02,.65-.16,.9-.06,1.23,.49,2.43,1.05,3.64,1.59-1.05,.64-2.05,1.74-3.15,1.85-11.37,1.1-22.74,2.08-34.13,2.98-2.76,.22-5.55,.03-8.33,.03-.08-.72-.15-1.44-.23-2.16Z"/>
      <path class="c" d="M657.16,478.86c-2.57,2.88-43.81,5.92-50.29,4.03,2.9-2.26,42.32-5.51,50.29-4.03Z"/>
      <path class="c" d="M658.25,456.25c-7.89,.43-15.81-.21-23.62-.15-8.63,.06-17.09-.56-26.16-.66,3.14-3.37,43-2.51,49.78,.81Z"/>
      <path class="c" d="M610.62,472.4c14.95-1.1,29.9-2.19,44.86-3.29l.12,1.8c-14.91,2.33-29.79,5.04-44.97,3.46,0-.66,0-1.31,0-1.97Z"/>
      <path class="c" d="M438.74,382.4c1.69-.45,3.38-1.28,5.06-1.27,7.44,.04,14.88,.25,22.31,.59,.9,.04,1.76,1.21,2.63,1.85-.69,.63-1.39,1.81-2.07,1.8-8.35-.12-16.7-.38-25.04-.7-.95-.04-1.87-.66-2.81-1.02-.03-.42-.06-.83-.09-1.25Z"/>
      <path class="c" d="M453.38,218.89c.83-18.53,1.66-37.06,2.35-52.42v52.4c-.78,0-1.57,.01-2.35,.02Z"/>
      <path class="c" d="M664.47,420.59c-6.19,3.79-28.66,3.65-31.17,0h31.17Z"/>
      <path class="c" d="M614.8,440.52c11.53,1.06,23.06,2.12,34.6,3.18-2.92,2.04-29.9,.08-34.6-3.18Z"/>
      <path class="c" d="M624.88,294.68c6.67-5.07,13.33-10.14,20-15.22l1.39,1.76c-6.3,5.49-13.24,10.18-20.04,15.05-.45-.53-.9-1.06-1.36-1.59Z"/>
      <path class="c" d="M577.49,128.22c-6.92,1.4-13.83,3.19-20.87,.68,6.86-2.41,13.89-1.42,20.87-.68Z"/>
      <path class="c" d="M609.15,324.36c2.71-.17,5.42-.39,8.13-.51,2.12-.09,4.26-.24,6.35,0,1.22,.14,2.35,1.01,3.52,1.56-1.19,.56-2.37,1.54-3.58,1.59-4.74,.19-9.5,.08-14.25,.08-.06-.9-.11-1.81-.17-2.71Z"/>
      <path class="c" d="M644.22,291.68c-4.87,4.09-9.73,8.17-14.6,12.26-.36-.41-.73-.82-1.09-1.23,3.49-5.58,8.98-8.98,13.92-12.99,.59,.66,1.18,1.31,1.76,1.97Z"/>
      <path class="c" d="M574.27,135.88c-6.62,4.95-17.02,6.46-21.63,2.81,7.38-.96,13.88-1.8,21.63-2.81Z"/>
      <path class="c" d="M457.7,312.37c.35,7.14,.87,17.72,1.39,28.3-.46,0-.92,0-1.39,.01v-28.31Z"/>
      <path class="c" d="M623.73,285.64c6.31-4.55,12.63-9.1,18.94-13.65,.26,.35,.53,.69,.79,1.04-6.11,4.82-12.23,9.63-18.34,14.45-.46-.61-.92-1.22-1.39-1.84Z"/>
      <path class="c" d="M439.56,340.93c-.45-9.9-.91-19.8-1.36-29.7,.28-.02,.56-.03,.84-.05,.75,9.91,1.5,19.82,2.25,29.74-.58,0-1.15,.01-1.73,.02Z"/>
      <path class="c" d="M555.25,148.74h16.15l.03,1.2h-16.16c0-.4,0-.8-.01-1.2Z"/>
      <path class="c" d="M450.41,313.32v26.5c-.24,0-.47,.02-.71,.02v-26.39c.24-.05,.47-.09,.71-.14Z"/>
      <path class="c" d="M443.77,406.08c4.04-1.06,8.08-2.11,12.12-3.17,.18,.65,.36,1.29,.55,1.94-4.05,1.02-8.1,2.05-12.14,3.07-.18-.61-.35-1.23-.53-1.84Z"/>
      <path class="c" d="M634.42,312.5c2.1-1.33,4.14-2.77,6.34-3.93,.54-.29,1.66,.2,2.31,.63,.2,.14-.05,1.67-.45,1.88-2.37,1.24-4.84,2.27-7.28,3.37-.3-.65-.61-1.3-.91-1.95Z"/>
      <path class="c" d="M443.68,396.37c4.18-.93,8.36-1.87,12.55-2.8,.11,.49,.21,.99,.32,1.48-4.19,.91-8.38,1.81-12.56,2.72-.1-.47-.2-.93-.3-1.4Z"/>
      <path class="c" d="M378.99,769.01c2.8-5.38,5.39-10.69,8.31-15.81,1.1-1.93,2.78-3.66,4.52-5.08,3.99-3.27,8.3-2.14,10.28,2.66,2.73,6.63,2.64,13.33,.05,20.01-.48,1.24-.93,2.49-1.42,3.82,2.85,0,5.39-.14,7.91,.03,3.82,.27,7.26,1.46,8.68,5.49,1.45,4.11,.02,7.97-3.14,10.22-4.85,3.46-10.34,6.03-16.01,9.24,0,3.56,.76,8.36-.23,12.77-.84,3.75-3.01,7.77-5.8,10.38-5.03,4.72-12.29,3.49-16.38-2.1-1.68-2.3-3.01-4.94-4.06-7.6-.99-2.52-1.39-5.27-2.04-7.92-14.44-1.76-15.75-13.6-9.07-21.48-6.74-8.58-7.44-13.49-2.57-18.08,5.7-5.37,12.31-4.25,20.97,3.44Zm16.45-14.39c-1.89,3.04-3.81,5.31-4.82,7.93-2.06,5.37-3.38,11.01-5.51,16.35-.74,1.87-2.75,3.56-4.6,4.47-.67,.33-2.81-1.7-3.88-3-2.3-2.8-4.07-6.06-6.56-8.65-1.78-1.85-4.78-2.47-6.33,.2-1.71,2.96,1.55,3.32,3.27,4.12,2.35,1.09,4.75,2.3,3.7,5.29-1.05,3.01-2.99,5.69-4.24,8.65-.68,1.62-.73,3.52-1.06,5.29,1.9,.06,3.82,.31,5.69,.13,1.92-.18,4.79-1.73,5.47-1,1.24,1.32,1.2,3.86,1.65,5.91,1.06,4.79,1.5,9.84,3.34,14.3,1.63,3.95,5.45,3.46,7.53-.42,3.15-5.89,1.57-12.76-3.51-17.02-1.13-.95-2.05-3.35-1.62-4.59,.39-1.13,2.67-1.86,4.24-2.24,1.07-.26,2.36,.39,3.56,.62,5.83,1.15,11.22-.18,16.1-3.33,1.53-.99,2.5-2.84,3.72-4.3-.29-.38-.58-.75-.87-1.13-1.61,.14-3.26,.11-4.82,.47-4.29,.98-8.51,2.36-12.84,3.1-1.68,.29-4.57-.2-5.16-1.28-.8-1.49-.48-4.15,.36-5.81,1.2-2.38,3.22-4.38,5.03-6.42,4.31-4.88,5.35-11.34,2.14-17.62Z"/>
      <path class="c" d="M396.44,722.06c1.17-3.64,1.96-6.9,3.26-9.94,2.22-5.19,7.29-8.19,11.86-7.39,4.96,.87,8.12,4.8,8.7,10.87,.11,1.19,.14,2.38,.23,3.98,2.19-.94,4.06-1.82,5.99-2.56,3.51-1.34,6.86-1.38,9.71,1.54,2.64,2.7,2.45,5.89,.98,8.89-1.91,3.92-4.25,7.63-6.4,11.41,2.29,1.48,5.12,2.96,7.53,4.95,4.35,3.58,4.64,8.69,.43,12.19-6.15,5.11-13.26,7.63-21.23,4.98-2.32-.77-4.71-2.4-6.16-4.33-.96-1.27-.3-3.76-.37-5.7,1.92,.08,4.26-.52,5.7,.35,6.28,3.79,10.09,3.78,16-1.07-4.24-3.14-8.84-4.76-13.96-4.76-2.88,0-5.33-.56-5.77-3.8-.41-3.01,1.65-4.14,4.26-4.94,5.99-1.83,10.05-5.73,11.5-12.49-2.84,1.55-5.68,3.1-8.52,4.65-1.33,.73-2.58,1.85-4,2.12-1.48,.28-3.47,.21-4.55-.6-.8-.6-.75-2.68-.64-4.06,.27-3.3,1-6.58,1.12-9.88,.04-1.03-1.3-2.1-2.01-3.15-.99,.82-2.54,1.45-2.89,2.48-1.54,4.56-3.48,9.09-.53,14.04,.69,1.16-.04,4.21-1.15,5.09-1.1,.87-3.7,.57-5.29-.07-2.05-.82-3.63-2.76-5.65-3.69-.9-.41-2.4,.47-3.63,.77,.68,.95,1.16,2.32,2.09,2.77,2.36,1.15,4.71,2.4,3.65,5.35-1.1,3.1-3.98,3.48-6.9,2.83-4.69-1.03-8.26-6.13-7.78-10.97,.53-5.31,4.88-9.48,10.34-9.86,1.34-.09,2.7-.01,4.06-.01Z"/>
      <path class="c" d="M478.84,782.53c-20.51,3.87-40.39,4.88-56.76-12.9,1.96-.57,3.94-1.34,6-1.66,.93-.14,2.15,.4,2.99,.98,13.41,9.44,28.21,7.81,43.14,5.66,5.42-.78,10.88-1.38,16.34-1.62,1.46-.07,3.56,1.11,4.33,2.35,.64,1.04,.3,3.39-.51,4.52-15.18,21.18-44.36,28.56-65.92,19.25-2.39-1.03-4.68-2.32-3.63-5.33,1.07-3.08,3.56-2.5,6.1-1.71,15.26,4.74,30,4.35,43.71-4.88,1.48-1,2.88-2.12,4.31-3.19-.04-.49-.07-.97-.11-1.46Z"/>
      <path class="c" d="M469.93,687.92c-4.94,3.51-9.82,7.11-14.83,10.52-5.66,3.85-11.38,7.62-17.2,11.21-1,.62-3.31,.73-3.86,.09-.73-.87-.93-3.07-.31-4.02,1.3-1.98,3.1-3.75,5.01-5.19,6.68-5.04,13.77-9.57,20.18-14.92,5.17-4.32,9.52-9.61,14.39-14.3,1.15-1.11,3.16-2.36,4.41-2.05,1.2,.3,2.77,2.54,2.74,3.9-.46,19.38-8.22,35.28-23.31,47.52-.93,.75-2.09,1.53-3.21,1.65-1.35,.15-3.38,.05-4.01-.77-.62-.81-.27-2.94,.4-4.02,.93-1.49,2.54-2.58,3.9-3.79,7.74-6.93,13.3-15.23,15.69-25.81Z"/>
      <path class="c" d="M476.4,731.77c-9.59,1.33-19.18,2.72-28.79,3.89-1.35,.16-2.85-.79-4.27-1.23,.46-1.45,.53-3.78,1.45-4.19,4.66-2.09,9.45-4.75,14.38-5.22,10.89-1.05,21.89-1.08,32.85-1.08,1.89,0,3.79,2.21,5.68,3.4-1.38,1.75-2.43,4.02-4.2,5.15-5.77,3.67-11.73,7.06-17.77,10.29-6.07,3.24-12.43,6.09-19.54,4.95-1.83-.29-4.59-2.08-4.84-3.52-.53-3.18,2.59-3.03,4.82-3.2,7.59-.58,14.42-3.14,20.58-7.49-.12-.58-.23-1.16-.35-1.74Z"/>
      <path class="c" d="M632.29,722.73c33.9-1.81,66.84-3.56,100.2-5.34-8.54,6.12-95.16,11.7-100.2,5.34Z"/>
      <path class="c" d="M737.32,737.74c-27.03,2.04-54.06,3.47-81.13,1.23-.09-.76-.18-1.52-.27-2.28,1.8-.34,3.61-.98,5.41-.96,19.65,.22,39.3,.56,58.96,.83,5.68,.08,11.36,.01,17.04,.01,0,.39,0,.78,0,1.17Z"/>
      <path class="c" d="M627.29,765.57c-5.46,.77-10.89,1.89-16.38,2.25-13.36,.88-26.74,1.53-40.13,1.93-2,.06-4.06-1.7-6.09-2.63,2.09-.72,4.17-2.02,6.28-2.08,16.9-.51,33.8-.79,50.7-1.12,1.81-.04,3.62,0,5.43,0,.07,.55,.13,1.1,.2,1.64Z"/>
      <path class="c" d="M565.13,705.22c6.68,0,13.37-.1,20.05,.09,1.12,.03,2.21,1.3,3.31,1.99-1.09,.76-2.16,2.14-3.28,2.19-13.35,.5-26.71,.91-40.07,1.03-1.62,.01-3.25-1.82-4.88-2.8,1.61-.8,3.19-2.21,4.83-2.28,6.67-.26,13.36-.11,20.04-.11,0-.04,0-.08,0-.12Z"/>
      <path class="c" d="M597.88,743.45c-6.82,4.6-42.29,4.41-48.33-.62,1.81-.65,3.19-1.61,4.53-1.55,14.43,.62,28.86,1.41,43.8,2.17Z"/>
      <path class="c" d="M606.86,756.61c-14.39,1.54-28.76,2.49-44.04,.43,3.05-2.8,34.64-2.86,44.04-.43Z"/>
      <path class="c" d="M537.61,583.2h69.33c-7.76,4.08-61.12,4.1-69.33,0Z"/>
      <path class="c" d="M591.62,569.95h-56.75v-1.28h56.76c0,.43,0,.85,0,1.28Z"/>
    </g>
  </g>
</svg>